<svg height="512" viewBox="0 0 60 60" width="512" xmlns="http://www.w3.org/2000/svg"><g id="b"><path d="m18 29v4.586c0 .891-1.077 1.337-1.707.707l-6.121-6.121c-.75-.75-1.768-1.172-2.828-1.172h-.233c-3.314 0-6-2.686-6-6v-14c-.001-3.314 2.685-6 5.999-6h23.89c3.314 0 6 2.686 6 6v14c0 3.314-2.686 6-6 6h-11c-1.105 0-2 .895-2 2z" fill="#a4c400"/><path d="m31 1h-3c3.314 0 6 2.686 6 6v14c0 3.314-2.686 6-6 6h3c3.314 0 6-2.686 6-6v-14c0-3.314-2.686-6-6-6z" fill="#90ac00"/><path d="m42.058 31v-4.586c0-.891 1.08-1.337 1.712-.707l6.14 6.121c.752.75 1.773 1.172 2.837 1.172h.234c3.324 0 6.018 2.686 6.018 6v14c0 3.314-2.695 6-6.018 6h-23.963c-3.324 0-6.018-2.686-6.018-6v-14c0-3.314 2.695-6 6.018-6h11.034c1.108 0 2.006-.895 2.006-2z" fill="#02a9f4"/><path d="m52.982 33h-.234c-1.064 0-2.085-.421-2.837-1.172l-6.14-6.121c-.632-.63-1.712-.184-1.712.707v.577l4.852 4.838c.752.75 1.773 1.172 2.837 1.172h.234c3.324 0 6.018 2.686 6.018 6v14c0 3.314-2.695 6-6.018 6h3c3.324 0 6.018-2.686 6.018-6v-14c0-3.314-2.695-6-6.018-6z" fill="#0377bc"/><circle cx="19" cy="10" fill="#ffe0b2" r="5"/><path d="m19 5c-.526 0-1.024.104-1.5.254 2.023.64 3.5 2.51 3.5 4.746s-1.477 4.105-3.5 4.746c.476.151.974.254 1.5.254 2.761 0 5-2.239 5-5s-2.239-5-5-5z" fill="#dfc49c"/><path d="m16 15h6c3.311 0 6 2.689 6 6 0 1.104-.896 2-2 2h-14c-1.104 0-2-.896-2-2 0-3.311 2.689-6 6-6z" fill="#e91e63"/><path d="m22 15h-3c3.314 0 6 2.686 6 6 0 1.105-.895 2-2 2h3c1.105 0 2-.895 2-2 0-3.314-2.686-6-6-6z" fill="#ad1457"/><circle cx="41" cy="42" fill="#ffe0b2" r="5"/><path d="m41 37c-.526 0-1.024.104-1.5.254 2.023.64 3.5 2.51 3.5 4.746s-1.477 4.105-3.5 4.746c.476.151.974.254 1.5.254 2.761 0 5-2.239 5-5s-2.239-5-5-5z" fill="#dfc49c"/><path d="m38 47h6c3.311 0 6 2.689 6 6 0 1.104-.896 2-2 2h-14c-1.104 0-2-.896-2-2 0-3.311 2.689-6 6-6z" fill="#e91e63"/><path d="m44 47h-3c3.314 0 6 2.686 6 6 0 1.105-.895 2-2 2h3c1.105 0 2-.895 2-2 0-3.314-2.686-6-6-6z" fill="#ad1457"/></g><g id="c"><path d="m52.981 32h-.233c-.806 0-1.562-.312-2.131-.879l-6.141-6.122c-.577-.574-1.432-.743-2.185-.432-.75.312-1.234 1.036-1.234 1.847v4.586c0 .551-.451 1-1.006 1h-11.034c-3.87 0-7.019 3.14-7.019 7v6h-7c-.552 0-1 .448-1 1s.448 1 1 1h7v4h-19.998c-.552 0-1 .448-1 1s.448 1 1 1h20c0 3.86 3.148 7 7.019 7h23.963c3.87 0 7.019-3.14 7.019-7v-14c0-3.86-3.148-7-7.019-7zm5.019 21c0 2.757-2.251 5-5.019 5h-23.962c-2.767 0-5.019-2.243-5.019-5v-14c0-2.757 2.251-5 5.019-5h11.034c1.657 0 3.006-1.346 3.006-3l.006-4.585 6.141 6.122c.946.944 2.204 1.463 3.543 1.463h.233c2.768 0 5.019 2.243 5.019 5v14z"/><path d="m23.34 14.132c1.026-1.077 1.66-2.53 1.66-4.132 0-3.309-2.691-6-6-6s-6 2.691-6 6c0 1.602.634 3.055 1.66 4.132-3.221.627-5.66 3.467-5.66 6.868 0 1.654 1.346 3 3 3h14c1.654 0 3-1.346 3-3 0-3.401-2.44-6.241-5.66-6.868zm-4.34-8.132c2.206 0 4 1.794 4 4s-1.794 4-4 4-4-1.794-4-4 1.794-4 4-4zm7 16h-14c-.551 0-1-.449-1-1 0-2.757 2.243-5 5-5h6c2.757 0 5 2.243 5 5 0 .551-.449 1-1 1z"/><path d="m45.34 46.132c1.026-1.077 1.66-2.53 1.66-4.132 0-3.309-2.691-6-6-6s-6 2.691-6 6c0 1.602.634 3.055 1.66 4.132-3.221.627-5.66 3.467-5.66 6.868 0 1.654 1.346 3 3 3h14c1.654 0 3-1.346 3-3 0-3.401-2.44-6.241-5.66-6.868zm-4.34-8.132c2.206 0 4 1.794 4 4s-1.794 4-4 4-4-1.794-4-4 1.794-4 4-4zm7 16h-14c-.551 0-1-.449-1-1 0-2.757 2.243-5 5-5h6c2.757 0 5 2.243 5 5 0 .551-.448 1-1 1z"/><path d="m59 8c0-.552-.447-1-1-1h-20c0-3.86-3.14-7-7-7h-23.89c-3.86 0-7 3.14-7 7v14c0 3.86 3.14 7 7 7h.233c.79 0 1.562.32 2.121.878l6.122 6.122c.383.384.893.587 1.412.587.258 0 .519-.05.767-.153.75-.311 1.235-1.036 1.235-1.848v-4.586c0-.551.449-1 1-1h11c3.86 0 7-3.14 7-7v-6h7c.552 0 1-.448 1-1s-.448-1-1-1h-7v-4h20c.553 0 1-.448 1-1zm-23 13c0 2.757-2.243 5-5 5h-11c-1.654 0-3 1.346-3 3v4.586l-6.122-6.122c-.944-.944-2.2-1.464-3.535-1.464h-.233c-2.757 0-5-2.243-5-5v-14c0-2.757 2.243-5 5-5h23.89c2.757 0 5 2.243 5 5z"/><path d="m42 19c-.552 0-1 .448-1 1s.448 1 1 1h13c.553 0 1-.448 1-1s-.447-1-1-1z"/><path d="m5 39c-.552 0-1 .448-1 1s.448 1 1 1h13c.552 0 1-.448 1-1s-.448-1-1-1z"/></g></svg>