<?xml version="1.0" encoding="UTF-8"?>
<svg xmlns="http://www.w3.org/2000/svg" id="Icons" viewBox="0 0 60 60" width="512" height="512"><path d="M5,52H9v3a5.006,5.006,0,0,0,5,5H42a5.006,5.006,0,0,0,5-5V37.689L58.521,26.168a4.93,4.93,0,0,0,1.431-4.157,6.672,6.672,0,0,0-2-3.773,6.666,6.666,0,0,0-3.774-2,4.936,4.936,0,0,0-4.156,1.432L47,20.682V13a5.006,5.006,0,0,0-5-5H38V5a5.006,5.006,0,0,0-5-5H5A5.006,5.006,0,0,0,0,5V47A5.006,5.006,0,0,0,5,52Zm11.208,6H14a3,3,0,0,1-3-3V52h7.815l-2.433,5.136A1.978,1.978,0,0,0,16.208,58Zm1.98-.007L19.6,55.014l1.568,1.569Zm2.321-4.9,2.252-4.753,5.082,5.082-4.755,2.25ZM45,55a3,3,0,0,1-3,3H22.857l6.5-3.078h0a4.987,4.987,0,0,0,1.4-.985L45,39.689ZM29.553,52.307l-2.13-2.131L47.888,29.711l2.131,2.131ZM51.431,19.08a2.914,2.914,0,0,1,2.455-.868,4.721,4.721,0,0,1,2.647,1.44A4.729,4.729,0,0,1,57.974,22.3a2.928,2.928,0,0,1-.868,2.455l-1.419,1.42L50.011,20.5ZM48.6,21.913l5.676,5.675-2.84,2.84c-.139-.139-5.873-5.873-5.675-5.676ZM38,10h4a3,3,0,0,1,3,3v9.682l-7,7Zm6.344,16.167,2.13,2.13L26.009,48.762l-2.131-2.13ZM2,5A3,3,0,0,1,5,2H33a3,3,0,0,1,3,3V31.682L22.248,45.434a4.979,4.979,0,0,0-.984,1.4L19.762,50H5a3,3,0,0,1-3-3Z"/><path d="M13,22a3,3,0,0,0,3-3,3,3,0,0,1,6,0c0,1.477-1.176,2.605-2.54,3.914C17.919,24.394,16,26.235,16,29a3,3,0,0,0,5.994.06,8.647,8.647,0,0,1,1.624-1.82C25.363,25.565,28,23.035,28,19a9,9,0,0,0-18,0A3,3,0,0,0,13,22Zm6-10a7.008,7.008,0,0,1,7,7c0,3.182-2.089,5.186-3.768,6.8C21.034,26.946,20,27.939,20,29a1,1,0,0,1-2,0c0-1.912,1.446-3.3,2.848-4.646C22.4,22.867,24,21.33,24,19a5,5,0,0,0-10,0,1,1,0,0,1-2,0A7.008,7.008,0,0,1,19,12Z"/><path d="M19,34a3,3,0,1,0,3,3A3,3,0,0,0,19,34Zm0,4a1,1,0,1,1,1-1A1,1,0,0,1,19,38Z"/></svg>
