<?xml version="1.0" encoding="UTF-8"?>
<svg width="512px" height="512px" viewBox="0 0 512 512" version="1.1" xmlns="http://www.w3.org/2000/svg" xmlns:xlink="http://www.w3.org/1999/xlink">
    <title>general-active</title>
    <g id="general-active" stroke="none" fill="none" fill-rule="evenodd" stroke-width="1">
        <g id="Group">
            <g id="Color">
                <rect id="Rectangle" fill="#FFDB00" x="85.3333333" y="76.8" width="307.2" height="426.8032" rx="34.1333351"></rect>
                <path d="M358.4,76.8 L332.8,76.8 C351.651319,76.8 366.933333,92.0820139 366.933333,110.933333 L366.933333,469.469867 C366.933333,488.321186 351.651319,503.6032 332.8,503.6032 L358.4,503.6032 C377.251319,503.6032 392.533333,488.321186 392.533333,469.469867 L392.533333,110.933333 C392.533333,92.0820139 377.251319,76.8 358.4,76.8 Z" id="Path" fill="#FDC008"></path>
                <rect id="Rectangle" fill="#02A8F3" x="8.53333333" y="8.3968" width="307.2" height="426.8032" rx="34.1333351"></rect>
                <path d="M281.6,8.3968 L256,8.3968 C274.851319,8.3968 290.133333,23.6788139 290.133333,42.5301333 L290.133333,401.066667 C290.133333,419.917986 274.851319,435.2 256,435.2 L281.6,435.2 C300.451319,435.2 315.733333,419.917986 315.733333,401.066667 L315.733333,42.5301333 C315.733333,23.6788139 300.451319,8.3968 281.6,8.3968 Z" id="Path" fill="#3F51B4"></path>
                <path d="M162.133333,264.533333 C171.558993,264.533333 179.2,256.892326 179.2,247.466667 C179.2,242.056533 187.554133,234.043733 195.626667,226.295467 C210.304,212.215467 230.4,192.930133 230.4,162.133333 C230.4,124.430694 199.835972,93.8666667 162.133333,93.8666667 C124.430694,93.8666667 93.8666667,124.430694 93.8666667,162.133333 C93.8666667,171.558993 101.507674,179.2 110.933333,179.2 C120.358993,179.2 128,171.558993 128,162.133333 C128,143.282014 143.282014,128 162.133333,128 C180.984653,128 196.266667,143.282014 196.266667,162.133333 C196.266667,178.346667 184.4736,189.687467 171.989333,201.659733 C159.377067,213.777067 145.066667,227.498667 145.066667,247.466667 C145.066667,256.892326 152.707674,264.533333 162.133333,264.533333 Z" id="Path" fill="#A3C300"></path>
                <circle id="Oval" fill="#A3C300" cx="162.133333" cy="315.733333" r="17.0666667"></circle>
                <path d="M195.191467,485.376 L158.9248,502.613333 C157.757192,503.178848 156.47601,503.470689 155.178667,503.466708 C152.25116,503.422034 149.546087,501.895685 147.994332,499.412876 C146.442576,496.930067 146.255947,493.829691 147.498667,491.178667 L164.736,454.912 L195.191467,485.376 Z" id="Path" fill="#607D8B"></path>
                <path d="M408.610133,241.493333 L221.994667,428.202667 L221.909333,428.202667 L192.128,398.336 C193.253688,396.701594 194.509311,395.160602 195.882667,393.728 L377.045333,212.565333 L378.402133,211.2 L408.610133,241.493333 Z" id="Path" fill="#FFDF00"></path>
                <polygon id="Path" fill="#FEC108" points="378.402133 211.2 377.045333 212.565333 365.585067 224.017067 383.010133 241.493333 209.160533 415.419733 221.909333 428.202667 221.994667 428.202667 408.610133 241.493333"></polygon>
                <path d="M438.912,271.701333 L256.375467,454.229333 C254.941511,455.597719 253.40376,456.853026 251.776,457.984 L221.994667,428.202667 L408.610133,241.493333 L438.912,271.701333 Z" id="Path" fill="#A3C300"></path>
                <path d="M408.610133,241.493333 L395.810133,254.293333 L413.2864,271.7184 L239.402667,445.610667 L251.776,457.984 C253.40376,456.853026 254.941511,455.597719 256.375467,454.229333 L438.912,271.701333 L408.610133,241.493333 Z" id="Path" fill="#8FAB00"></path>
                <path d="M251.776,457.984 C250.237904,459.158356 248.575281,460.159936 246.818133,460.970667 L195.191467,485.376 L164.693333,454.912 L189.098667,403.285333 C189.912396,401.530629 190.916848,399.870851 192.093867,398.336 L221.8752,428.202667 L221.960533,428.202667 L251.776,457.984 Z" id="Path" fill="#FFE0B2"></path>
                <path d="M221.994667,428.202667 L221.909333,428.202667 L192.128,398.336 C190.950981,399.870851 189.946529,401.530629 189.1328,403.285333 L183.466667,415.3088 L196.3264,428.202667 L196.411733,428.202667 L226.193067,457.984 C224.654971,459.158356 222.992347,460.159936 221.2352,460.970667 L186.999467,477.184 L195.208533,485.4016 L246.8352,460.996267 C248.592347,460.185536 250.254971,459.183956 251.793067,458.0096 L221.994667,428.202667 Z" id="Path" fill="#DFC49C"></path>
                <polygon id="Path" fill="#02A8F3" points="475.178667 235.434667 438.912 271.701333 408.610133 241.493333 378.402133 211.2 414.6688 174.933333"></polygon>
                <polygon id="Path" fill="#3F51B4" points="414.6688 174.933333 401.8688 187.733333 449.578667 235.434667 426.0864 258.9184 438.912 271.701333 475.178667 235.434667"></polygon>
                <path d="M493.354667,217.258667 L475.178667,235.434667 L414.6688,174.933333 L432.853333,156.757333 C440.185656,149.257429 450.607907,145.625432 461.013333,146.944 C471.514178,148.732726 481.137495,153.919125 488.405333,161.706667 C496.192875,168.974505 501.379274,178.597822 503.168,189.098667 C504.481146,199.503523 500.849969,209.923421 493.354667,217.258667 L493.354667,217.258667 Z" id="Path" fill="#E91E63"></path>
                <path d="M503.168,189.098667 C501.379274,178.597822 496.192875,168.974505 488.405333,161.706667 C481.137495,153.919125 471.514178,148.732726 461.013333,146.944 C455.276617,146.177771 449.439439,146.973749 444.117333,149.248 C451.168888,152.011026 457.542711,156.260242 462.805333,161.706667 C470.592875,168.974505 475.779274,178.597822 477.568,189.098667 C478.881146,199.503523 475.249969,209.923421 467.754667,217.258667 L462.378667,222.634667 L475.178667,235.434667 L493.354667,217.258667 C500.849969,209.923421 504.481146,199.503523 503.168,189.098667 L503.168,189.098667 Z" id="Path" fill="#AD1457"></path>
            </g>
            <g id="Icons" fill="#000000" fill-rule="nonzero">
                <path d="M42.6666667,443.733333 L76.8,443.733333 L76.8,469.333333 C76.8282122,492.885787 95.9142131,511.971788 119.466667,512 L358.4,512 C381.952454,511.971788 401.038454,492.885787 401.066667,469.333333 L401.066667,321.6128 L499.3792,223.300267 C508.788416,214.04588 513.309476,200.912374 511.5904,187.8272 C509.582331,175.515218 503.586195,164.203507 494.523733,155.630933 C485.951255,146.563773 474.63519,140.566918 462.318933,138.564267 C449.23603,136.858326 436.109646,141.38118 426.8544,150.784 L401.066667,176.4864 L401.066667,110.933333 C401.038454,87.3808798 381.952454,68.2948789 358.4,68.2666667 L324.266667,68.2666667 L324.266667,42.6666667 C324.238454,19.1142131 305.152454,0.0282121927 281.6,2.84558155e-14 L42.6666667,2.84558155e-14 C19.1142131,0.0282121927 0.0282121927,19.1142131 1.23308534e-13,42.6666667 L1.23308534e-13,401.066667 C0.0282121927,424.61912 19.1142131,443.705121 42.6666667,443.733333 L42.6666667,443.733333 Z M93.8666667,469.333333 L93.8666667,443.733333 L160.554667,443.733333 L139.793067,487.560533 C138.749942,489.875189 138.242411,492.395342 138.308267,494.933333 L119.466667,494.933333 C105.328177,494.933333 93.8666667,483.471823 93.8666667,469.333333 Z M378.402133,223.291733 L396.578133,241.467733 L221.943467,416.1024 L203.758933,397.9264 L378.402133,223.291733 Z M438.894933,259.652267 C437.7088,258.466133 388.778667,209.536 390.468267,211.217067 L414.72,186.990933 L463.1552,235.4176 L438.894933,259.652267 Z M194.2272,412.5184 L237.5936,455.8848 L197.0176,475.0848 L175.010133,453.12 L194.2272,412.5184 Z M167.253333,469.4528 L180.6336,482.8416 L155.204267,494.8736 L167.253333,469.4528 Z M384,469.333333 C384,483.471823 372.53849,494.933333 358.4,494.933333 L195.0464,494.933333 L250.513067,468.667733 C254.949974,466.575455 258.991725,463.731795 262.459733,460.2624 L384,338.679467 L384,469.333333 Z M252.1856,446.353067 L234.0096,428.168533 L408.644267,253.533867 L426.8288,271.7184 L252.1856,446.353067 Z M438.877867,162.816 C444.308156,157.190787 452.067956,154.4472 459.8272,155.409067 C468.496597,156.927683 476.43014,161.243626 482.414933,167.697067 C488.869127,173.685986 493.187491,181.621467 494.711467,190.293333 C495.654284,198.050496 492.913622,205.802023 487.304533,211.242667 L475.195733,223.36 L426.760533,174.933333 L438.877867,162.816 Z M358.4,85.3333333 C372.53849,85.3333333 384,96.7948437 384,110.933333 L384,193.553067 L324.266667,253.2864 L324.266667,85.3333333 L358.4,85.3333333 Z M17.0666667,42.6666667 C17.0666667,28.5281771 28.5281771,17.0666667 42.6666667,17.0666667 L281.6,17.0666667 C295.73849,17.0666667 307.2,28.5281771 307.2,42.6666667 L307.2,270.353067 L189.8496,387.703467 C186.382195,391.171266 183.541313,395.21317 181.4528,399.650133 L168.635733,426.666667 L42.6666667,426.666667 C28.5281771,426.666667 17.0666667,415.205156 17.0666667,401.066667 L17.0666667,42.6666667 Z" id="Shape"></path>
                <path d="M110.933333,187.733333 C125.071823,187.733333 136.533333,176.271823 136.533333,162.133333 C136.533333,147.994844 147.994844,136.533333 162.133333,136.533333 C176.271823,136.533333 187.733333,147.994844 187.733333,162.133333 C187.733333,174.737067 177.698133,184.362667 166.058667,195.5328 C152.9088,208.162133 136.533333,223.872 136.533333,247.466667 C136.993471,261.16357 148.158713,272.068679 161.862656,272.207162 C175.5666,272.343032 186.947903,261.663614 187.682133,247.978667 C191.544468,242.172975 196.210257,236.944074 201.540267,232.448 C216.430933,218.154667 238.933333,196.565333 238.933333,162.133333 C238.933333,119.717865 204.548801,85.333335 162.133333,85.333335 C119.717865,85.333335 85.3333333,119.717865 85.3333333,162.133333 C85.3333333,176.271823 96.7948437,187.733333 110.933333,187.733333 L110.933333,187.733333 Z M162.133333,102.4 C195.107547,102.43762 221.829046,129.15912 221.866667,162.133333 C221.866667,189.2864 204.040533,206.3872 189.713067,220.16 C179.490133,229.9392 170.666667,238.4128 170.666667,247.466667 C170.666667,252.179497 166.846163,256 162.133333,256 C157.420503,256 153.6,252.179497 153.6,247.466667 C153.6,231.150933 165.9392,219.306667 177.902933,207.8208 C191.146667,195.131733 204.8,182.016 204.8,162.133333 C204.8,138.569184 185.697483,119.466667 162.133333,119.466667 C138.569184,119.466667 119.466667,138.569184 119.466667,162.133333 C119.466667,166.846163 115.646163,170.666667 110.933333,170.666667 C106.220503,170.666667 102.4,166.846163 102.4,162.133333 C102.43762,129.15912 129.15912,102.43762 162.133333,102.4 L162.133333,102.4 Z" id="Shape"></path>
                <path d="M162.133333,290.133333 C147.994844,290.133333 136.533333,301.594844 136.533333,315.733333 C136.533333,329.871823 147.994844,341.333333 162.133333,341.333333 C176.271823,341.333333 187.733333,329.871823 187.733333,315.733333 C187.733333,301.594844 176.271823,290.133333 162.133333,290.133333 Z M162.133333,324.266667 C157.420503,324.266667 153.6,320.446163 153.6,315.733333 C153.6,311.020503 157.420503,307.2 162.133333,307.2 C166.846163,307.2 170.666667,311.020503 170.666667,315.733333 C170.666667,320.446163 166.846163,324.266667 162.133333,324.266667 Z" id="Shape"></path>
            </g>
        </g>
    </g>
</svg>