<?xml version="1.0" encoding="UTF-8"?>
<svg width="448px" height="398px" viewBox="0 0 448 398" version="1.1" xmlns="http://www.w3.org/2000/svg" xmlns:xlink="http://www.w3.org/1999/xlink">
    <title>Group</title>
    <g id="Page-1" stroke="none" stroke-width="1" fill="none" fill-rule="evenodd">
        <g id="Group">
            <path d="M32.0624,389.240001 C23.482227,389.240001 15.5528867,384.665969 11.2622055,377.235665 C6.97152429,369.80536 6.97159844,360.650235 11.2624,353.22 L203.2,20.7696 C207.489184,13.338935 215.417063,8.76128556 223.9968,8.76128556 C232.576537,8.76128556 240.504416,13.338935 244.7936,20.7696 L436.7344,353.2184 C441.025202,360.648635 441.025276,369.80376 436.734594,377.234065 C432.443913,384.664369 424.514573,389.240001 415.9344,389.240001 L32.0624,389.240001 Z" id="Path" fill="#FFD21E"></path>
            <g transform="translate(-32, -57)" fill="#000000" fill-rule="nonzero" id="Shape">
                <path d="M256,73.7591478 C261.736125,73.7004234 267.049841,76.7682333 269.8664,81.7656 L461.8072,414.22 C464.668457,419.174192 464.669045,425.278584 461.808743,430.233327 C458.948441,435.18807 453.661884,438.24 447.9408,438.24 L64.0592,438.24 C58.3388584,438.24 53.0531338,435.187904 50.192989,430.233927 C47.3328441,425.279951 47.3327721,419.176444 50.1928,414.2224 L242.1336,81.768 C244.949662,76.7698336 250.263416,73.7010816 256,73.7591478 M256,57.7595321 C244.546147,57.6979226 233.948888,63.8170189 228.2768,73.768 L36.3368,406.22 C30.6169215,416.12448 30.6160303,428.328236 36.3344623,438.233551 C42.0528942,448.138866 52.6217297,454.24 64.0592,454.24 L447.9408,454.24 C459.377528,454.24 469.94553,448.138699 475.663805,438.234151 C481.38208,428.329603 481.38185,416.126732 475.6632,406.2224 L283.7232,73.768 C278.051112,63.8170189 267.453853,57.6979226 256,57.7595321 L256,57.7595321 Z"></path>
            </g>
            <path d="M216.125,354 C192.345875,354 173,334.68041 173,310.933594 L173,166.421875 C173,134.759453 198.7945,109 230.5,109 C262.2055,109 288,134.759453 288,166.421875 L288,310.933594 L273.625,310.933594 L273.625,166.421875 C273.625,142.675059 254.279125,123.355469 230.5,123.355469 C206.720875,123.355469 187.375,142.675059 187.375,166.421875 L187.375,310.933594 C187.375,326.764805 200.27225,339.644531 216.125,339.644531 C231.97775,339.644531 244.875,326.764805 244.875,310.933594 L244.875,195.132812 C244.875,187.217207 238.426375,180.777344 230.5,180.777344 C222.573625,180.777344 216.125,187.217207 216.125,195.132812 L216.125,310.933594 L201.75,310.933594 L201.75,195.132812 C201.75,179.301602 214.64725,166.421875 230.5,166.421875 C246.35275,166.421875 259.25,179.301602 259.25,195.132812 L259.25,310.933594 C259.25,334.68041 239.904125,354 216.125,354 Z" id="Path" fill="#000000"></path>
        </g>
    </g>
</svg>