<?xml version="1.0" encoding="UTF-8"?>
<svg width="512px" height="512px" viewBox="0 0 512 512" version="1.1" xmlns="http://www.w3.org/2000/svg" xmlns:xlink="http://www.w3.org/1999/xlink">
    <title>user-notes-not-allowed</title>
    <g id="user-notes-not-allowed" stroke="none" fill="none" fill-rule="evenodd" stroke-width="1">
        <g id="Group">
            <g fill="#D7D7D7" id="Path">
                <path d="M316.775,450.981 L501.991,450.981 L501.991,404.379 C501.991,321.409 316.775,321.409 316.775,404.379 L316.775,450.981 Z"></path>
                <path d="M316.775,450.981 L463.61,450.981 L463.61,404.379 C463.61,368.662 429.282,348.338 390.193,343.377 C351.103,348.338 316.775,368.662 316.775,404.379 L316.775,450.981 L316.775,450.981 Z"></path>
                <path d="M409.383,351.513 C381.235,351.003 362.555,318.773 362.555,291.872 C362.555,233.025 456.212,233.025 456.212,291.872 C456.212,318.773 437.532,351.003 409.384,351.513 L409.383,351.513 Z"></path>
                <path d="M396.088,348.764 C375.508,340.345 362.554,314.266 362.554,291.873 C362.554,268.09 377.861,253.945 396.088,249.382 C414.315,253.946 429.593,268.091 429.593,291.873 C429.593,314.267 416.639,340.345 396.088,348.764 Z"></path>
                <path d="M10.009,450.981 L195.225,450.981 L195.225,404.379 C195.225,321.409 10.009,321.409 10.009,404.379 L10.009,450.981 Z"></path>
                <path d="M10.009,450.981 L156.815,450.981 L156.815,404.379 C156.815,368.662 122.516,348.338 83.426,343.377 C44.308,348.338 10.009,368.662 10.009,404.379 L10.009,450.981 Z"></path>
                <path d="M102.617,351.513 C74.469,351.003 55.789,318.773 55.789,291.872 C55.789,233.025 149.446,233.025 149.446,291.872 C149.446,318.773 130.766,351.003 102.618,351.513 L102.617,351.513 Z"></path>
                <path d="M89.294,348.764 C68.743,340.345 55.788,314.266 55.788,291.873 C55.788,268.09 71.067,253.945 89.294,249.382 C107.521,253.946 122.828,268.091 122.828,291.873 C122.828,314.267 109.874,340.345 89.294,348.764 L89.294,348.764 Z"></path>
                <path d="M163.392,502.005 L348.608,502.005 L348.608,455.375 C348.608,372.405 163.392,372.405 163.392,455.375 L163.392,502.005 Z"></path>
                <path d="M163.392,502.005 L310.198,502.005 L310.198,455.375 C310.198,419.658 275.899,399.334 236.809,394.373 C197.719,399.334 163.392,419.658 163.392,455.375 L163.392,502.005 Z"></path>
                <path d="M256,402.509 C227.852,402.027 209.172,369.769 209.172,342.868 C209.172,284.021 302.829,284.021 302.829,342.868 C302.829,369.769 284.149,402.027 256.001,402.509 L256,402.509 Z"></path>
                <path d="M242.677,399.759 C222.126,391.34 209.172,365.261 209.172,342.868 C209.172,319.085 224.451,304.941 242.677,300.377 C260.904,304.941 276.211,319.085 276.211,342.868 C276.211,365.262 263.257,391.341 242.677,399.759 L242.677,399.759 Z"></path>
                <path d="M96.636,9.995 C144.456,9.995 183.234,48.773 183.234,96.622 C183.234,137.214 155.341,171.258 117.64,180.669 L96.635,217.094 L75.602,180.669 C37.93,171.258 10.008,137.214 10.008,96.622 C10.008,48.773 48.787,9.995 96.636,9.995 Z"></path>
                <path d="M75.688,180.811 L75.603,180.669 C37.931,171.258 10.009,137.214 10.009,96.622 C10.009,52.203 43.43,15.608 86.488,10.59 C124.359,19.831 152.507,53.988 152.507,94.751 C152.507,139.255 118.888,175.936 75.688,180.811 Z"></path>
                <path d="M415.364,9.995 C463.213,9.995 501.991,48.773 501.991,96.622 C501.991,137.214 474.098,171.258 436.397,180.669 L415.364,217.094 L394.359,180.669 C356.658,171.258 328.765,137.214 328.765,96.622 C328.765,48.773 367.543,9.995 415.364,9.995 Z"></path>
            </g>
            <path d="M394.416,180.811 L394.359,180.669 C356.658,171.258 328.765,137.214 328.765,96.622 C328.765,52.203 362.186,15.608 405.244,10.59 C443.115,19.831 471.263,53.988 471.263,94.751 C471.263,139.255 437.644,175.936 394.416,180.811 Z" id="Path" fill="#D7D7D7"></path>
            <path d="M415.364,16.005 C459.84,16.005 496.01,52.175 496.01,96.622 C496.01,133.699 470.895,165.872 434.952,174.858 C433.375292,175.263048 432.027162,176.284052 431.21,177.692 L415.364,205.103 L399.547,177.692 C398.730181,176.283748 397.381908,175.262635 395.805,174.858 C359.862,165.872 334.747,133.699 334.747,96.622 C334.747,52.175 370.917,16.005 415.364,16.005 L415.364,16.005 Z M410.177,220.099 C411.254,221.942 413.239,223.104 415.365,223.104 C417.513473,223.097958 419.49808,221.954602 420.581,220.099 L440.367,185.828 C480.307,174.688 508.002,138.348 508.002,96.622 C508.002,45.57 466.446,4.014 415.366,4.014 C364.286,4.014 322.758,45.57 322.758,96.622 C322.758,138.348 350.452,174.688 390.393,185.828 L410.177,220.099 Z M96.608,16.005 C141.084,16.005 177.254,52.175 177.254,96.622 C177.254,133.699 152.139,165.872 116.196,174.858 C114.619292,175.263048 113.271162,176.284052 112.454,177.692 L96.608,205.103 L80.791,177.692 C79.9741809,176.283748 78.6259075,175.262635 77.049,174.858 C41.106,165.872 15.991,133.699 15.991,96.622 C15.991,52.175 52.161,16.005 96.608,16.005 Z M71.635,185.828 L91.421,220.099 C92.498,221.942 94.482,223.104 96.608,223.104 C98.756473,223.097958 100.74108,221.954602 101.824,220.099 L121.61,185.828 C161.55,174.688 189.245,138.348 189.245,96.622 C189.245,45.57 147.689,4.014 96.609,4.014 C45.529,4.014 4,45.57 4,96.622 C4,138.348 31.694,174.688 71.635,185.828 Z M496.011,445 L353.654,445 C350.536,427.992 339.708,413.706 322.813,403.558 C323.352,371.668 355.27,355.114 385.941,350.068 C392.829,354.603 400.681,357.353 409.27,357.523 L409.497,357.523 C418.086,357.353 425.966,354.603 432.855,350.068 C463.781,355.17 496.011,371.923 496.011,404.351 L496.011,445 L496.011,445 Z M342.627,495.995 L169.373,495.995 L169.373,455.375 C169.373,422.947 201.603,406.166 232.557,401.063 C239.445,405.598 247.297,408.348 255.914,408.518 L256.112,408.518 C264.701,408.348 272.581,405.598 279.469,401.063 C310.395,406.166 342.625,422.947 342.625,455.375 L342.625,495.995 L342.627,495.995 Z M15.991,404.351 C15.991,371.923 48.221,355.17 79.147,350.068 C86.035,354.603 93.915,357.353 102.504,357.523 L102.702,357.523 C111.291,357.353 119.171,354.603 126.059,350.068 C156.758,355.114 188.676,371.668 189.215,403.529 C172.292,413.677 161.464,427.992 158.317,445 L15.991,445 L15.991,404.351 Z M102.618,253.746 C122.29,253.746 143.465,265.68 143.465,291.872 C143.465,316.817 126.004,345.021 102.589,345.532 C79.232,345.022 61.77,316.817 61.77,291.872 C61.77,265.68 82.945,253.746 102.617,253.746 L102.618,253.746 Z M256.001,304.741 C275.673,304.741 296.848,316.675 296.848,342.867 C296.848,367.812 279.387,396.017 256.001,396.527 C232.615,396.017 215.154,367.812 215.154,342.867 C215.154,316.675 236.329,304.741 256.001,304.741 Z M409.384,253.746 C429.056,253.746 450.231,265.68 450.231,291.872 C450.231,316.817 432.77,345.021 409.384,345.532 C386.027,345.022 368.565,316.817 368.565,291.872 C368.565,265.68 389.74,253.746 409.384,253.746 L409.384,253.746 Z M444.193,340.061 C455.503,327.163 462.221,308.908 462.221,291.872 C462.221,258.962 435.632,241.755 409.383,241.755 C383.134,241.755 356.574,258.961 356.574,291.872 C356.574,308.908 363.292,327.163 374.602,340.061 C337.837,348.565 314.422,369.768 311.191,397.633 C304.955,394.968 298.152,392.758 290.782,391.057 C302.121,378.16 308.839,359.904 308.839,342.868 C308.839,309.958 282.25,292.752 256.001,292.752 C229.752,292.752 203.163,309.958 203.163,342.868 C203.163,359.904 209.881,378.16 221.22,391.057 C213.878,392.758 207.047,394.969 200.839,397.633 C197.607,369.768 174.165,348.565 137.4,340.061 C148.739,327.163 155.457,308.908 155.457,291.872 C155.457,258.962 128.868,241.755 102.619,241.755 C76.37,241.755 49.781,258.961 49.781,291.872 C49.781,308.908 56.499,327.163 67.809,340.061 C28.152,349.245 4.001,373.17 4.001,404.351 L4.001,450.981 C4.001,454.297 6.694,456.991 9.982,456.991 L157.384,456.991 L157.384,501.977 C157.385655,505.294993 160.075007,507.986 163.393,507.986 L348.637,507.986 C351.925,507.986 354.618,505.293 354.618,501.977 L354.618,456.991 L501.991,456.991 C505.309545,456.989345 508.001,454.299545 508.001,450.981 L508.001,404.351 C508.001,373.17 483.85,349.245 444.193,340.061 L444.193,340.061 Z" id="Shape" fill="#000000" fill-rule="nonzero"></path>
        </g>
        <g id="close" transform="translate(373, 52)" fill="#F44336">
            <path d="M5.3792013,83 C4.00264559,83 2.62510528,82.4731956 1.57742635,81.4245103 C-0.525808785,79.3222161 -0.525808785,75.923097 1.57742635,73.8208028 L73.819024,1.57672064 C75.9212746,-0.525573547 79.3203231,-0.525573547 81.4225736,1.57672064 C83.5258088,3.67901483 83.5258088,7.07813395 81.4225736,9.18042813 L9.18097599,81.4245103 C8.12640437,82.4781189 6.75575675,83 5.3792013,83 Z" id="Path"></path>
            <path d="M77.620799,83 C76.2442432,83 74.8676875,82.4731956 73.819024,81.4245103 L1.57742635,9.18042813 C-0.525808785,7.07813395 -0.525808785,3.67901483 1.57742635,1.57672064 C3.6796769,-0.525573547 7.07774085,-0.525573547 9.18097599,1.57672064 L81.4225736,73.8208028 C83.5258088,75.923097 83.5258088,79.3222161 81.4225736,81.4245103 C80.3739099,82.4781189 78.9973544,83 77.620799,83 L77.620799,83 Z" id="Path"></path>
        </g>
        <g id="close" transform="translate(56, 52)" fill="#F44336">
            <path d="M5.3792013,83 C4.00264559,83 2.62510528,82.4731956 1.57742635,81.4245103 C-0.525808785,79.3222161 -0.525808785,75.923097 1.57742635,73.8208028 L73.819024,1.57672064 C75.9212746,-0.525573547 79.3203231,-0.525573547 81.4225736,1.57672064 C83.5258088,3.67901483 83.5258088,7.07813395 81.4225736,9.18042813 L9.18097599,81.4245103 C8.12640437,82.4781189 6.75575675,83 5.3792013,83 Z" id="Path"></path>
            <path d="M77.620799,83 C76.2442432,83 74.8676875,82.4731956 73.819024,81.4245103 L1.57742635,9.18042813 C-0.525808785,7.07813395 -0.525808785,3.67901483 1.57742635,1.57672064 C3.6796769,-0.525573547 7.07774085,-0.525573547 9.18097599,1.57672064 L81.4225736,73.8208028 C83.5258088,75.923097 83.5258088,79.3222161 81.4225736,81.4245103 C80.3739099,82.4781189 78.9973544,83 77.620799,83 L77.620799,83 Z" id="Path"></path>
        </g>
    </g>
</svg>