<svg id="Layer_1" viewBox="0 0 512 512" xmlns="http://www.w3.org/2000/svg" data-name="Layer 1"><path d="m224.28 250.6v-81.014c0-5.868-4.791-10.658-10.658-10.658h-16.639c-5.868 0-10.658 4.791-10.658 10.658v81.014c0 5.868 4.791 10.658 10.658 10.658h16.639c5.868 0 10.658-4.791 10.658-10.658z" fill="#4bb3fd" fill-rule="evenodd"/><path d="m224.28 234.074v-64.488c0-5.868-4.791-10.658-10.658-10.658h-16.639c-5.868 0-10.63 4.791-10.658 10.63v64.516c0 5.868 4.791 10.658 10.658 10.658h16.639c5.868 0 10.658-4.791 10.658-10.658z" fill="#74c3fc" fill-rule="evenodd"/><path d="m224.28 169.756v73.162c0 7.625 6.236 13.861 13.833 13.861h48.076v-.057h12.728c6.661 0 12.104-5.443 12.104-12.104 0-6.661-5.443-12.104-12.104-12.104h11.083c6.661 0 12.104-5.442 12.104-12.104 0-6.661-5.443-12.104-12.104-12.104h3.572c6.661 0 12.104-5.443 12.104-12.104 0-6.661-5.443-12.104-12.104-12.104 6.661 0 12.104-5.442 12.104-12.104 0-6.661-5.443-12.104-12.104-12.104h-20.636c-1.531 0-2.863-.709-3.713-1.984-.85-1.304-.992-2.807-.397-4.224 3.742-8.816 7.625-17.66 11.31-26.504 6.435-15.506 5.329-26.589-3.373-33.194-8.107-5.669-14.003-5.329-17.603 1.049l-11.82 28.97c-2.353 5.754-6.35 9.921-11.991 12.529-8.674 3.997-31.068 23.188-31.068 33.222z" fill="#f6b4a8" fill-rule="evenodd"/><path d="m224.28 169.756v61.115c0 7.625 6.236 13.862 13.833 13.862h72.907v-.114c0-6.661-5.443-12.104-12.104-12.104h11.083c6.661 0 12.104-5.442 12.104-12.104 0-6.661-5.443-12.104-12.104-12.104h3.572c6.661 0 12.104-5.443 12.104-12.104 0-6.661-5.443-12.104-12.104-12.104 6.661 0 12.104-5.442 12.104-12.104 0-6.661-5.443-12.104-12.104-12.104h-20.636c-1.531 0-2.863-.709-3.713-1.984-.85-1.304-.992-2.807-.397-4.224 3.742-8.816 7.625-17.66 11.31-26.504 6.435-15.506 5.329-26.589-3.373-33.194-8.107-5.669-14.003-5.329-17.603 1.049l-11.82 28.97c-2.353 5.754-6.35 9.921-11.991 12.529-8.674 3.997-31.068 23.188-31.068 33.222z" fill="#f9c9c0" fill-rule="evenodd"/><path d="m310 232.515h-17.802c-3.317 0-6.009-2.693-6.009-6.009s2.693-5.981 6.009-5.981h29.906c-.057 6.605-5.471 11.99-12.104 11.99zm3.572-24.208c6.633 0 12.047-5.386 12.104-11.99h-29.934c-3.288 0-5.981 2.693-5.981 5.981 0 3.317 2.693 6.01 5.981 6.01h17.83zm0-24.208c6.633 0 12.047-5.386 12.104-11.99h-26.362c-3.317 0-6.009 2.693-6.009 6.01 0 3.288 2.693 5.981 6.009 5.981h14.258z" fill="#f6b4a8"/><g fill-rule="evenodd"><path d="m316.775 450.981h185.216v-46.602c0-82.97-185.216-82.97-185.216 0z" fill="#ff9b0d"/><path d="m316.775 450.981h146.835v-46.602c0-35.717-34.328-56.041-73.417-61.002-39.09 4.961-73.417 25.285-73.417 61.002v46.602z" fill="#ffb122"/><path d="m409.383 351.513c-28.148-.51-46.828-32.74-46.828-59.641 0-58.847 93.657-58.847 93.657 0 0 26.901-18.68 59.131-46.828 59.641z" fill="#f6b4a8"/><path d="m396.088 348.764c-20.58-8.419-33.534-34.498-33.534-56.891 0-23.783 15.307-37.928 33.534-42.491 18.227 4.564 33.505 18.709 33.505 42.491 0 22.394-12.954 48.472-33.505 56.891z" fill="#f9c9c0"/><path d="m10.009 450.981h185.216v-46.602c0-82.97-185.216-82.97-185.216 0v46.602z" fill="#f24c00"/><path d="m10.009 450.981h146.806v-46.602c0-35.717-34.299-56.041-73.389-61.002-39.118 4.961-73.417 25.285-73.417 61.002z" fill="#fa5f17"/><path d="m102.617 351.513c-28.148-.51-46.828-32.74-46.828-59.641 0-58.847 93.657-58.847 93.657 0 0 26.901-18.68 59.131-46.828 59.641z" fill="#f6b4a8"/><path d="m89.294 348.764c-20.551-8.419-33.506-34.498-33.506-56.891 0-23.783 15.279-37.928 33.506-42.491 18.227 4.564 33.534 18.709 33.534 42.491 0 22.394-12.954 48.472-33.534 56.891z" fill="#f9c9c0"/><path d="m163.392 502.005h185.216v-46.63c0-82.97-185.216-82.97-185.216 0z" fill="#4bb3fd"/><path d="m163.392 502.005h146.806v-46.63c0-35.717-34.299-56.041-73.389-61.002-39.09 4.961-73.417 25.285-73.417 61.002z" fill="#74c3fc"/><path d="m256 402.509c-28.148-.482-46.828-32.74-46.828-59.641 0-58.847 93.657-58.847 93.657 0 0 26.901-18.68 59.159-46.828 59.641z" fill="#f6b4a8"/><path d="m242.677 399.759c-20.551-8.419-33.505-34.498-33.505-56.891 0-23.783 15.279-37.927 33.505-42.491 18.227 4.564 33.534 18.708 33.534 42.491 0 22.394-12.954 48.473-33.534 56.891z" fill="#f9c9c0"/><path d="m96.636 9.995c47.82 0 86.598 38.778 86.598 86.627 0 40.592-27.893 74.636-65.594 84.047l-21.005 36.425-21.033-36.425c-37.672-9.411-65.594-43.455-65.594-84.047.001-47.849 38.779-86.627 86.628-86.627z" fill="#e1dae7"/><path d="m75.688 180.811-.085-.142c-37.672-9.411-65.594-43.455-65.594-84.047 0-44.419 33.421-81.014 76.479-86.032 37.871 9.241 66.019 43.398 66.019 84.161 0 44.504-33.619 81.185-76.819 86.06z" fill="#ebe6ef"/><path d="m415.364 9.995c47.849 0 86.627 38.778 86.627 86.627 0 40.592-27.893 74.636-65.594 84.047l-21.033 36.425-21.005-36.425c-37.701-9.411-65.594-43.455-65.594-84.047 0-47.849 38.778-86.627 86.599-86.627z" fill="#e1dae7"/></g><path d="m63.499 69.211c-3.317 0-6.009-2.693-6.009-5.981 0-3.316 2.693-6.009 6.009-6.009h66.246c3.317 0 6.009 2.693 6.009 6.009 0 3.288-2.693 5.981-6.009 5.981zm0 66.812c-3.317 0-6.009-2.693-6.009-6.009s2.693-6.009 6.009-6.009h66.246c3.317 0 6.009 2.693 6.009 6.009s-2.693 6.009-6.009 6.009zm0-33.42c-3.317 0-6.009-2.665-6.009-5.981s2.693-6.009 6.009-6.009h66.246c3.317 0 6.009 2.693 6.009 6.009s-2.693 5.981-6.009 5.981z" fill="#9992a3"/><path d="m394.416 180.811-.057-.142c-37.701-9.411-65.594-43.455-65.594-84.047 0-44.419 33.421-81.014 76.479-86.032 37.871 9.241 66.019 43.398 66.019 84.161 0 44.504-33.619 81.185-76.847 86.06z" fill="#ebe6ef" fill-rule="evenodd"/><path d="m415.364 73.576c6.208-12.387 12.387-18.595 24.775-18.595 13.691 0 24.775 11.112 24.775 24.775 0 24.775-24.775 49.55-49.55 74.325-24.775-24.775-49.55-49.55-49.55-74.325 0-13.663 11.112-24.775 24.775-24.775 12.387 0 18.595 6.208 24.775 18.595z" fill="#fa5f17"/><path d="m390.589 60.991c9.014 0 13.55 3.571 19.417 15.279 1.021 2.041 3.09 3.316 5.358 3.316h.028c2.268 0 4.337-1.304 5.357-3.316 5.754-11.565 10.46-15.279 19.389-15.279 10.375 0 18.794 8.419 18.794 18.765 0 20.948-21.458 43.682-43.568 65.849-22.082-22.167-43.54-44.901-43.54-65.849 0-10.346 8.419-18.765 18.765-18.765zm24.775 99.099c1.559 0 3.09-.595 4.252-1.757 25.228-25.229 51.307-51.307 51.307-78.577 0-16.951-13.805-30.756-30.784-30.756-11.849 0-19.134 4.847-24.775 12.756-5.641-7.909-12.926-12.756-24.775-12.756-16.951 0-30.756 13.805-30.756 30.756 0 27.27 26.079 53.348 51.307 78.577 1.162 1.162 2.693 1.757 4.224 1.757zm-357.846-30.076c0-3.316 2.693-5.981 6.009-5.981h66.217c3.317 0 6.009 2.665 6.009 5.981s-2.693 6.009-6.009 6.009h-66.217c-3.317 0-6.009-2.693-6.009-6.009zm0-33.392c0-3.316 2.693-5.981 6.009-5.981h66.217c3.317 0 6.009 2.665 6.009 5.981s-2.693 6.009-6.009 6.009h-66.217c-3.317 0-6.009-2.693-6.009-6.009zm0-33.392c0-3.316 2.693-5.981 6.009-5.981h66.217c3.317 0 6.009 2.665 6.009 5.981s-2.693 6.009-6.009 6.009h-66.217c-3.317 0-6.009-2.693-6.009-6.009zm357.846-47.225c44.476 0 80.646 36.17 80.646 80.617 0 37.077-25.115 69.25-61.058 78.236-1.559.397-2.92 1.417-3.742 2.834l-15.846 27.411-15.817-27.411c-.822-1.417-2.183-2.438-3.742-2.834-35.943-8.986-61.058-41.159-61.058-78.236 0-44.447 36.17-80.617 80.617-80.617zm-24.973 169.823 19.786 34.271c1.077 1.843 3.062 3.005 5.188 3.005 2.154 0 4.139-1.162 5.216-3.005l19.786-34.271c39.94-11.14 67.635-47.48 67.635-89.206 0-51.052-41.556-92.608-92.636-92.608s-92.608 41.556-92.608 92.608c0 41.726 27.694 78.066 67.635 89.206zm-293.783-169.823c44.476 0 80.646 36.17 80.646 80.617 0 37.077-25.115 69.25-61.058 78.236-1.559.397-2.92 1.417-3.742 2.834l-15.846 27.411-15.817-27.411c-.822-1.417-2.183-2.438-3.742-2.834-35.943-8.986-61.058-41.159-61.058-78.236 0-44.447 36.17-80.617 80.617-80.617zm-24.973 169.823 19.786 34.271c1.077 1.843 3.061 3.005 5.187 3.005 2.154 0 4.139-1.162 5.216-3.005l19.786-34.271c39.94-11.14 67.635-47.48 67.635-89.206 0-51.052-41.556-92.608-92.636-92.608s-92.609 41.556-92.609 92.608c0 41.726 27.694 78.066 67.635 89.206zm424.375 259.172h-142.356c-3.118-17.008-13.946-31.294-30.841-41.442.539-31.89 32.457-48.444 63.128-53.49 6.888 4.535 14.74 7.285 23.329 7.455h.227c8.589-.17 16.469-2.92 23.358-7.455 30.926 5.102 63.156 21.855 63.156 54.283v40.649zm-153.383 50.995h-173.254v-40.62c0-32.428 32.23-49.209 63.184-54.312 6.888 4.535 14.74 7.285 23.357 7.455h.198c8.589-.17 16.469-2.92 23.357-7.455 30.926 5.103 63.156 21.884 63.156 54.312v40.62zm-326.636-91.644c0-32.428 32.23-49.181 63.156-54.283 6.888 4.535 14.768 7.285 23.357 7.455h.198c8.589-.17 16.469-2.92 23.357-7.455 30.699 5.046 62.617 21.6 63.156 53.461-16.923 10.148-27.751 24.463-30.898 41.471h-142.326zm86.627-150.605c19.672 0 40.847 11.934 40.847 38.126 0 24.945-17.461 53.149-40.876 53.66-23.357-.51-40.819-28.715-40.819-53.66 0-26.192 21.175-38.126 40.847-38.126zm153.383 50.995c19.672 0 40.847 11.934 40.847 38.126 0 24.945-17.461 53.15-40.847 53.66-23.386-.51-40.847-28.715-40.847-53.66 0-26.192 21.175-38.126 40.847-38.126zm153.383-50.995c19.672 0 40.847 11.934 40.847 38.126 0 24.945-17.461 53.149-40.847 53.66-23.357-.51-40.819-28.715-40.819-53.66 0-26.192 21.175-38.126 40.819-38.126zm34.809 86.315c11.31-12.898 18.028-31.153 18.028-48.189 0-32.91-26.589-50.117-52.838-50.117s-52.809 17.206-52.809 50.117c0 17.036 6.718 35.291 18.028 48.189-36.765 8.504-60.18 29.707-63.411 57.572-6.236-2.665-13.039-4.875-20.409-6.576 11.339-12.897 18.057-31.153 18.057-48.189 0-32.91-26.589-50.116-52.838-50.116s-52.838 17.206-52.838 50.116c0 17.036 6.718 35.292 18.057 48.189-7.342 1.701-14.173 3.912-20.381 6.576-3.232-27.865-26.674-49.068-63.439-57.572 11.339-12.898 18.057-31.153 18.057-48.189 0-32.91-26.589-50.117-52.838-50.117s-52.838 17.206-52.838 50.117c0 17.036 6.718 35.291 18.028 48.189-39.657 9.184-63.808 33.109-63.808 64.29v46.63c0 3.316 2.693 6.01 5.981 6.01h147.402v44.986c0 3.316 2.693 6.009 6.009 6.009h185.244c3.288 0 5.981-2.693 5.981-6.009v-44.986h147.373c3.317 0 6.01-2.693 6.01-6.01v-46.63c0-31.181-24.151-55.106-63.808-64.29zm-251.858-170.476c0-2.58 2.069-4.649 4.62-4.649h16.639c2.58 0 4.677 2.069 4.677 4.649v81.014c0 2.58-2.069 4.677-4.649 4.677h-16.639c-2.551 0-4.649-2.098-4.649-4.677v-81.014zm65.509-27.609c7.03-3.231 12.104-8.504 15.024-15.704l11.679-28.573c.454-.737 1.077-1.502 1.758-1.672.51-.113 2.523-.255 6.945 2.806 2.409 1.843 9.128 7.313 1.332 26.05-2.154 5.216-4.45 10.545-6.661 15.676-1.559 3.6-3.118 7.2-4.649 10.8-1.361 3.26-1.02 6.86.935 9.893 1.984 2.948 5.159 4.649 8.731 4.649h20.636c3.317 0 6.123 2.778 6.123 6.094s-2.806 6.123-6.123 6.123h-14.258c-3.288 0-5.981 2.665-5.981 5.981s2.693 6.01 5.981 6.01h14.258c3.317 0 6.123 2.778 6.123 6.094s-2.806 6.123-6.123 6.123h-17.83c-3.288 0-5.981 2.665-5.981 5.981s2.693 6.01 5.981 6.01h14.258c3.373 0 6.123 2.721 6.123 6.094s-2.75 6.123-6.123 6.123h-17.83c-3.288 0-5.981 2.665-5.981 5.981s2.693 6.01 5.981 6.01h6.746c3.373 0 6.123 2.721 6.123 6.094s-2.75 6.123-6.123 6.123h-12.728l-5.981.057h-42.094c-4.337 0-7.852-3.543-7.852-7.88v-73.162c0-5.783 18.567-23.641 27.581-27.779zm-77.499 27.609v81.014c0 9.184 7.455 16.668 16.639 16.668h16.639c5.839 0 10.942-3.033 13.918-7.569 3.061 1.927 6.69 3.09 10.573 3.09h48.076l6.009-.057h6.718c9.978 0 18.113-8.135 18.113-18.114 0-2.466-.51-4.847-1.417-7.001 7.257-2.353 12.501-9.184 12.501-17.206 0-3.77-1.162-7.257-3.118-10.148 4.082-3.316 6.69-8.39 6.69-14.06 0-4.649-1.757-8.872-4.649-12.104 2.891-3.203 4.649-7.455 4.649-12.104 0-9.978-8.107-18.085-18.113-18.085h-18.34c1.219-2.863 2.466-5.726 3.685-8.589 2.239-5.188 4.564-10.545 6.746-15.846 9.468-22.762 2.353-34.441-5.244-40.252l-.227-.142c-6.18-4.309-11.594-5.868-16.526-4.762-2.778.652-6.746 2.494-9.723 7.767l-.198.34-11.962 29.31c-1.786 4.337-4.706 7.398-8.957 9.354-6.293 2.892-20.976 14.117-29.027 25.342-2.835-2.183-6.35-3.487-10.205-3.487h-16.639c-9.156 0-16.611 7.456-16.611 16.64z"/></svg>