<svg id="Layer_1" viewBox="0 0 100 100" xmlns="http://www.w3.org/2000/svg" data-name="Layer 1"><path d="m39.58 47.07h-17.39a7.5 7.5 0 0 1 -7.5-7.5v-17.4a7.51 7.51 0 0 1 7.5-7.5h17.39a7.51 7.51 0 0 1 7.5 7.5v17.4a7.5 7.5 0 0 1 -7.5 7.5zm-17.39-27.4a2.5 2.5 0 0 0 -2.5 2.5v17.4a2.5 2.5 0 0 0 2.5 2.5h17.39a2.5 2.5 0 0 0 2.5-2.5v-17.4a2.5 2.5 0 0 0 -2.5-2.5z"/><path d="m39.57 85.32h-17.39a7.5 7.5 0 0 1 -7.5-7.5v-17.4a7.51 7.51 0 0 1 7.5-7.5h17.39a7.51 7.51 0 0 1 7.5 7.5v17.4a7.5 7.5 0 0 1 -7.5 7.5zm-17.39-27.4a2.5 2.5 0 0 0 -2.5 2.5v17.4a2.5 2.5 0 0 0 2.5 2.5h17.39a2.5 2.5 0 0 0 2.5-2.5v-17.4a2.5 2.5 0 0 0 -2.5-2.5z"/><path d="m77.82 85.33h-17.39a7.51 7.51 0 0 1 -7.5-7.5v-17.4a7.5 7.5 0 0 1 7.5-7.5h17.39a7.5 7.5 0 0 1 7.5 7.5v17.4a7.51 7.51 0 0 1 -7.5 7.5zm-17.39-27.4a2.5 2.5 0 0 0 -2.5 2.5v17.4a2.5 2.5 0 0 0 2.5 2.5h17.39a2.5 2.5 0 0 0 2.5-2.5v-17.4a2.5 2.5 0 0 0 -2.5-2.5z"/><path d="m82.82 33.38h-27.39a2.5 2.5 0 1 1 0-5h27.39a2.5 2.5 0 0 1 0 5z"/><path d="m69.13 47.08a2.49 2.49 0 0 1 -2.5-2.5v-27.4a2.5 2.5 0 0 1 5 0v27.4a2.5 2.5 0 0 1 -2.5 2.5z"/></svg>