<svg xmlns="http://www.w3.org/2000/svg" version="1.1" xmlns:xlink="http://www.w3.org/1999/xlink" width="512" height="512" x="0" y="0" viewBox="0 0 16.933 16.933" style="enable-background:new 0 0 512 512" xml:space="preserve" class=""><g><path d="M9.785 1.082a.265.265 0 0 0-.22.125L4.274 9.673a.265.265 0 0 0 .242.405l3.617-.242-1.248 5.742a.265.265 0 0 0 .483.197l5.293-8.467a.265.265 0 0 0-.243-.404l-3.619.24 1.248-5.742a.265.265 0 0 0-.262-.32zM9.21 2.775 8.207 7.376a.265.265 0 0 0 .278.319l3.453-.229-4.213 6.739 1-4.6a.265.265 0 0 0-.275-.32l-3.453.228z" fill="#6883f5" opacity="1" data-original="#000000" class=""></path></g></svg>