<svg height="512pt" viewBox="0 -21 512 512" width="512pt" xmlns="http://www.w3.org/2000/svg"><path d="m473.605469 38.394531c-.023438-.023437-.046875-.046875-.074219-.074219-24.75-24.710937-57.636719-38.320312-92.617188-38.320312-35.011718 0-67.929687 13.636719-92.6875 38.394531l-258.613281 258.617188c-19.097656 19.09375-29.613281 44.480469-29.613281 71.488281 0 27.003906 10.515625 52.394531 29.613281 71.488281 19.707031 19.710938 45.597657 29.566407 71.488281 29.566407 25.890626 0 51.78125-9.855469 71.488282-29.566407l204.152344-204.148437c27.730468-27.730469 27.730468-72.851563 0-100.582032-27.730469-27.730468-72.851563-27.730468-100.582032 0l-163.867187 163.867188c-5.855469 5.859375-5.855469 15.355469 0 21.214844 5.859375 5.855468 15.355469 5.855468 21.214843 0l163.867188-163.871094c16.03125-16.03125 42.121094-16.03125 58.152344 0 16.035156 16.035156 16.035156 42.125 0 58.15625l-204.148438 204.152344c-27.722656 27.71875-72.832031 27.722656-100.554687-.003906-13.429688-13.425782-20.824219-31.28125-20.824219-50.273438s7.394531-36.847656 20.824219-50.277344l258.617187-258.617187c19.09375-19.089844 44.476563-29.605469 71.476563-29.605469 26.996093 0 52.382812 10.515625 71.472656 29.605469.023437.023437.050781.050781.074219.074219 19.046875 19.082031 29.535156 44.4375 29.535156 71.40625 0 26.996093-10.515625 52.382812-29.605469 71.472656l-218.332031 218.332031c-5.859375 5.859375-5.859375 15.355469 0 21.214844 5.855469 5.859375 15.351562 5.859375 21.210938 0l218.332031-218.335938c24.757812-24.753906 38.394531-57.671875 38.394531-92.683593 0-35.015626-13.636719-67.933594-38.394531-92.691407zm0 0"/></svg>