<svg enable-background="new 0 0 512 512" height="512" viewBox="0 0 512 512" width="512" xmlns="http://www.w3.org/2000/svg"><g id="_x30_7_Checklist"><g><path d="m139.346 145.564c38.464 0 69.757-31.251 69.757-69.662 0-38.464-31.293-69.757-69.757-69.757s-69.758 31.293-69.758 69.757c0 38.411 31.293 69.662 69.758 69.662zm0-123.803c29.852 0 54.141 24.289 54.141 54.141 0 29.802-24.289 54.046-54.141 54.046s-54.141-24.244-54.141-54.046c-.001-29.852 24.289-54.141 54.141-54.141z"/><path d="m125.678 96.173c1.464 1.464 3.45 2.287 5.52 2.287s4.056-.823 5.52-2.287l29.593-29.593c3.05-3.05 3.05-7.991 0-11.041s-7.991-3.05-11.041 0l-24.072 24.068-7.774-7.774c-3.05-3.05-7.991-3.05-11.041 0-3.05 3.046-3.05 7.991 0 11.041z"/><path d="m250.277 58.151h184.326c4.312 0 7.808-3.496 7.808-7.808s-3.496-7.808-7.808-7.808h-184.326c-4.312 0-7.808 3.496-7.808 7.808s3.497 7.808 7.808 7.808z"/><path d="m250.277 109.174h119.994c4.312 0 7.808-3.496 7.808-7.808s-3.496-7.808-7.808-7.808h-119.994c-4.312 0-7.808 3.496-7.808 7.808 0 4.311 3.497 7.808 7.808 7.808z"/><path d="m139.346 325.711c38.464 0 69.757-31.251 69.757-69.666 0-38.464-31.293-69.757-69.757-69.757s-69.757 31.293-69.757 69.757c-.001 38.415 31.292 69.666 69.757 69.666zm0-123.806c29.852 0 54.141 24.289 54.141 54.141 0 29.802-24.289 54.05-54.141 54.05s-54.141-24.247-54.141-54.05c-.001-29.852 24.289-54.141 54.141-54.141z"/><path d="m125.678 276.317c1.525 1.525 3.523 2.288 5.52 2.288 1.998 0 3.995-.763 5.52-2.288l29.593-29.593c3.05-3.05 3.05-7.991 0-11.041s-7.991-3.05-11.041 0l-24.072 24.072-7.774-7.774c-3.05-3.05-7.991-3.05-11.041 0s-3.05 7.991 0 11.041z"/><path d="m250.277 238.295h184.326c4.312 0 7.808-3.496 7.808-7.808s-3.496-7.808-7.808-7.808h-184.326c-4.312 0-7.808 3.496-7.808 7.808s3.497 7.808 7.808 7.808z"/><path d="m250.277 289.321h119.994c4.312 0 7.808-3.496 7.808-7.808s-3.496-7.808-7.808-7.808h-119.994c-4.312 0-7.808 3.496-7.808 7.808s3.497 7.808 7.808 7.808z"/><path d="m139.346 505.855c38.464 0 69.757-31.251 69.757-69.662 0-38.464-31.293-69.757-69.757-69.757s-69.757 31.293-69.757 69.757c-.001 38.411 31.292 69.662 69.757 69.662zm0-123.803c29.852 0 54.141 24.289 54.141 54.141 0 29.802-24.289 54.046-54.141 54.046s-54.141-24.244-54.141-54.046c-.001-29.851 24.289-54.141 54.141-54.141z"/><path d="m125.678 456.461c1.525 1.525 3.523 2.288 5.52 2.288 1.998 0 3.995-.763 5.52-2.288l29.593-29.592c3.05-3.05 3.05-7.991 0-11.041s-7.991-3.05-11.041 0l-24.072 24.072-7.774-7.774c-3.05-3.05-7.991-3.05-11.041 0s-3.05 7.991 0 11.041z"/><path d="m250.277 418.442h184.326c4.312 0 7.808-3.496 7.808-7.808s-3.496-7.808-7.808-7.808h-184.326c-4.312 0-7.808 3.496-7.808 7.808s3.497 7.808 7.808 7.808z"/><path d="m250.277 469.465h119.994c4.312 0 7.808-3.496 7.808-7.808s-3.496-7.808-7.808-7.808h-119.994c-4.312 0-7.808 3.496-7.808 7.808s3.497 7.808 7.808 7.808z"/></g></g></svg>