<svg height="512" viewBox="0 0 60 60" width="512" xmlns="http://www.w3.org/2000/svg"><g id="Page-1" fill="none" fill-rule="evenodd"><g id="049---Colour-Scheme"><path id="Path" d="m16 45v14h-12c-1.65685425 0-3-1.3431458-3-3v-8c-.00537898-1.5845064 1.22820936-2.8971146 2.81-2.99.06297268-.0083152.12650236-.0116589.19-.01z" fill="#f4f4f4"/><path id="Rectangle" d="m16 45h11v14h-11z" fill="#3f51b4"/><path id="Rectangle" d="m27 45h11v14h-11z" fill="#673ab6"/><path id="Rectangle" d="m38 45h11v14h-11z" fill="#9c27af"/><path id="Path" d="m59 48v8c0 1.6568542-1.3431458 3-3 3h-7v-14h7c1.6568542 0 3 1.3431458 3 3z" fill="#e81e63"/><path id="Path" d="m56 45h-3c1.6568542 0 3 1.3431458 3 3v8c0 1.6568542-1.3431458 3-3 3h3c1.6568542 0 3-1.3431458 3-3v-8c0-1.6568542-1.3431458-3-3-3z" fill="#ac1457"/><path id="Path" d="m15 4v5.47l-11.19 35.54c-1.58179064.0928854-2.81537898 1.4054936-2.81001752 2.99l.00001752-44c0-1.65685425 1.34314575-3 3-3h8c1.6568542 0 3 1.34314575 3 3z" fill="#f34335"/><path id="Path" d="m12 1h-3c1.6568542 0 3 1.34314575 3 3v5.47l-11 34.937-.00001752 3.593c-.00536146-1.5845064 1.22822688-2.8971146 2.81001752-2.99l11.19-35.54v-5.47c0-1.65685425-1.3431458-3-3-3z" fill="#c71e1e"/><path id="Path" d="m29.74 9.27-.75 2.37-23.33 33.36h-1.66c-.06349764-.0016589-.12702732.0016848-.19.01l11.19-35.54 1.39-4.41c.4978497-1.57886918 2.1805566-2.4560249 3.76-1.96l7.63 2.41c.7595066.23725674 1.3932234.76727586 1.7610313 1.47286664.367808.70559079.439408 1.52862824.1989687 2.28713336z" fill="#ff9701"/><path id="Path" d="m27.78 5.51-7.63-2.41c-.7682425-.24384708-1.6025491-.16554062-2.312.217l6.942 2.193c.7595066.23725674 1.3932234.76727586 1.7610313 1.47286664.367808.70559079.439408 1.52862824.1989687 2.28713336l-.75 2.37-21.232 30.36-.948 3.01c.06297268-.0083152.12650236-.0116589.19-.01h1.66l23.33-33.36.75-2.37c.2404393-.75850512.1688393-1.58154257-.1989687-2.28713336-.3678079-.70559078-1.0015247-1.2356099-1.7610313-1.47286664z" fill="#f47c00"/><path id="Path" d="m41.89 17.63-1.43 2.04.01.01-32.61 25.32h-2.2l23.33-33.36 1.43-2.04c.4558875-.65279711 1.1525849-1.09758602 1.9366206-1.23638659.7840356-.13880056 1.5910892.03977405 2.2433794.49638659l6.55 4.59c.6527971.4558875 1.097586 1.1525849 1.2363866 1.9366206.1388006.7840356-.0397741 1.5910892-.4963866 2.2433794z" fill="#ffdb00"/><path id="Path" d="m41.15 13.45-6.55-4.59c-.9591984-.66783031-2.2189334-.71778263-3.228-.128.076.044.155.077.228.128l6.55 4.59c.6527971.4558875 1.097586 1.1525849 1.2363866 1.9366206.1388006.7840356-.0397741 1.5910892-.4963866 2.2433794l-1.43 2.04.01.01-30.86 23.961-.95 1.359h2.2l32.61-25.32-.01-.01 1.43-2.04c.4566125-.6522902.6351872-1.4593438.4963866-2.2433794-.1388006-.7840357-.5835895-1.4807331-1.2363866-1.9366206z" fill="#fdc008"/><path id="Path" d="m50.97 29.25-1.94 1.5h-.01l-.01.01-39.01 14.24h-2.14l32.61-25.32 1.97-1.53c.6289881-.4864236 1.4260062-.7018917 2.2144064-.5986488s1.503063.5166692 1.9855936 1.1486488l4.88 6.34c1.007927 1.3151774.7619661 3.1978965-.55 4.21z" fill="#a3c300"/><path id="Path" d="m51.52 25.04-4.88-6.34c-.91243-1.1901766-2.5677151-1.5158345-3.863-.76.3343712.1947758.6275169.4529342.863.76l4.88 6.34c1.007927 1.3151774.7619661 3.1978965-.55 4.21l-1.94 1.5h-.01l-.01.01-37.387 13.648-.763.592h2.14l39.01-14.24.01-.01h.01l1.94-1.5c1.3119661-1.0121035 1.557927-2.8948226.55-4.21z" fill="#8fab00"/><path id="Path" d="m56.13 43.06-5.31 1.94h-40.82l39.01-14.24.01-.01h.01l2.3-.84c.7478779-.2737876 1.5739299-.2389606 2.2961086.0968056s1.2812093.9449127 1.5538914 1.6931944l2.74 7.51c.2737876.7478779.2389606 1.5739299-.0968056 2.2961086s-.9449127 1.2812093-1.6931944 1.5538914z" fill="#02a8f3"/><path id="Path" d="m57.92 39.21-2.74-7.51c-.2726821-.7482817-.8317127-1.3574282-1.5538914-1.6931944s-1.5482307-.3705932-2.2961086-.0968056l-.535.2c.6399002.343639 1.1323801.9090131 1.385 1.59l2.74 7.51c.2737876.7478779.2389606 1.5739299-.0968056 2.2961086s-.9449127 1.2812093-1.6931944 1.5538914l-5.31 1.94h3l5.31-1.94c.7482817-.2726821 1.3574282-.8317127 1.6931944-1.5538914s.3705932-1.5482307.0968056-2.2961086z" fill="#0377bb"/><circle id="Oval" cx="7" cy="52" fill="#7f8d93" r="2"/><g fill="#000" fill-rule="nonzero"><path id="Shape" d="m56.368 44.037.1-.038c.9972671-.3637213 1.8090595-1.108934 2.2565865-2.071511.4475271-.962577.4940827-2.0635681.1294135-3.060489l-2.74-7.51c-.5318568-1.4788328-1.8880771-2.5030617-3.456-2.61.747935-1.3815971.6103012-3.0743748-.351-4.317l-4.878-6.337c-.9484744-1.2546719-2.5522917-1.8250491-4.08-1.451.2899511-1.5407051-.3468886-3.1087616-1.629-4.011l-6.552-4.59c-1.2881926-.89700432-2.9819803-.95762245-4.331-.155-.0553384-.47837573-.1966049-.94282751-.417-1.371-.4865688-.94105704-1.3313562-1.64672835-2.344-1.958l-7.624-2.411c-1.6746952-.52067431-3.4930847.11263807-4.482 1.561-.1487015-2.08448683-1.8802237-3.70130114-3.97-3.707h-8c-2.209139 0-4 1.790861-4 4v52c0 2.209139 1.790861 4 4 4h52c2.209139 0 4-1.790861 4-4v-8c-.0061038-2.0605193-1.5798241-3.7776596-3.632-3.963zm-2.128-11.994 2.74 7.511c.1823346.4984604.1590568 1.048956-.0647067 1.5302445s-.6296597.8538948-1.1282933 1.0357555l-5.144 1.88h-34.987l33.7-12.3c.0316177-.0110294.0623696-.0243998.092-.04l2.229-.809c.4984604-.1823346 1.048956-.1590568 1.5302445.0647067s.8538948.6296597 1.0357555 1.1282933zm-28.24 13.957v12h-9v-12zm2 0h9v12h-9zm11 0h9v12h-9zm5.525-27.457c.5261893.0680983 1.0029228.3448415 1.323.768l4.88 6.34c.3238.4209766.4668621.9534563.3976407 1.4800265-.0692213.5265702-.3450412 1.003985-.7666407 1.3269735l-1.836 1.414-36.9 13.469 31.425-24.4c.4187797-.3258894.9511776-.4693521 1.477-.398zm-11.995-9.194c.5225393-.09370439 1.0608508.02548031 1.495.331l6.552 4.59c.4349549.3039672.7312826.7683278.8237466 1.2908526.092464.5225249-.026516 1.0603767-.3307466 1.4951474l-1.37 1.957-32.046 24.881 23.585-33.721c.3025411-.43655381.7676416-.73341114 1.291-.824zm-15.187-3.988c.3313287-1.05328712 1.4535437-1.6387906 2.507-1.308l7.634 2.412c1.0491434.33160607 1.6310648 1.45068563 1.3 2.5l-.7 2.229-22.877 32.706zm-13.343-3.361h8c1.1045695 0 2 .8954305 2 2v5.318l-10.962 34.812c-.36446522.0920145-.71397262.2354539-1.038.426v-40.556c0-1.1045695.8954305-2 2-2zm-2 54v-8c0-1.1045695.8954305-2 2-2h11v12h-11c-1.1045695 0-2-.8954305-2-2zm56 0c0 1.1045695-.8954305 2-2 2h-6v-12h6c1.1045695 0 2 .8954305 2 2z"/><path id="Shape" d="m7 49c-1.65685425 0-3 1.3431458-3 3s1.34314575 3 3 3 3-1.3431458 3-3-1.34314575-3-3-3zm0 4c-.55228475 0-1-.4477153-1-1s.44771525-1 1-1 1 .4477153 1 1-.44771525 1-1 1z"/></g></g></g></svg>