<svg xmlns="http://www.w3.org/2000/svg" version="1.1" xmlns:xlink="http://www.w3.org/1999/xlink" width="512" height="512" x="0" y="0" viewBox="0 0 60 60" style="enable-background:new 0 0 512 512" xml:space="preserve" class=""><g><g fill="none" fill-rule="evenodd"><path fill="#f4f4f4" d="M16 45v14H4a3 3 0 0 1-3-3v-8a2.985 2.985 0 0 1 2.81-2.99A1.21 1.21 0 0 1 4 45z" opacity="1" data-original="#f4f4f4" class=""></path><path fill="#d7d7d7" d="M16 45h11v14H16z" opacity="1" data-original="#3f51b4" class=""></path><path fill="#d7d7d7" d="M27 45h11v14H27z" opacity="1" data-original="#673ab6" class=""></path><path fill="#d7d7d7" d="M38 45h11v14H38z" opacity="1" data-original="#9c27af" class=""></path><path fill="#d7d7d7" d="M59 48v8a3 3 0 0 1-3 3h-7V45h7a3 3 0 0 1 3 3z" opacity="1" data-original="#e81e63" class=""></path><path fill="#d7d7d7" d="M56 45h-3a3 3 0 0 1 3 3v8a3 3 0 0 1-3 3h3a3 3 0 0 0 3-3v-8a3 3 0 0 0-3-3z" opacity="1" data-original="#ac1457" class=""></path><path fill="#d7d7d7" d="M15 4v5.47L3.81 45.01A2.985 2.985 0 0 0 1 48V4a3 3 0 0 1 3-3h8a3 3 0 0 1 3 3z" opacity="1" data-original="#f34335" class=""></path><path fill="#d7d7d7" d="M12 1H9a3 3 0 0 1 3 3v5.47L1 44.407V48a2.985 2.985 0 0 1 2.81-2.99L15 9.47V4a3 3 0 0 0-3-3z" opacity="1" data-original="#c71e1e" class=""></path><path fill="#d7d7d7" d="m29.74 9.27-.75 2.37L5.66 45H4a1.21 1.21 0 0 0-.19.01L15 9.47l1.39-4.41a3 3 0 0 1 3.76-1.96l7.63 2.41a2.992 2.992 0 0 1 1.96 3.76z" opacity="1" data-original="#ff9701" class=""></path><path fill="#d7d7d7" d="M27.78 5.51 20.15 3.1a2.975 2.975 0 0 0-2.312.217L24.78 5.51a2.992 2.992 0 0 1 1.96 3.76l-.75 2.37L4.758 42l-.948 3.01A1.21 1.21 0 0 1 4 45h1.66l23.33-33.36.75-2.37a2.992 2.992 0 0 0-1.96-3.76z" opacity="1" data-original="#f47c00" class=""></path><path fill="#d7d7d7" d="m41.89 17.63-1.43 2.04.01.01L7.86 45h-2.2l23.33-33.36 1.43-2.04a3 3 0 0 1 4.18-.74l6.55 4.59a3 3 0 0 1 .74 4.18z" opacity="1" data-original="#ffdb00" class=""></path><path fill="#d7d7d7" d="M41.15 13.45 34.6 8.86a3 3 0 0 0-3.228-.128c.076.044.155.077.228.128l6.55 4.59a3 3 0 0 1 .74 4.18l-1.43 2.04.01.01L6.61 43.641 5.66 45h2.2l32.61-25.32-.01-.01 1.43-2.04a3 3 0 0 0-.74-4.18z" opacity="1" data-original="#fdc008" class=""></path><path fill="#d7d7d7" d="m50.97 29.25-1.94 1.5h-.01l-.01.01L10 45H7.86l32.61-25.32 1.97-1.53a2.986 2.986 0 0 1 4.2.55l4.88 6.34a3.007 3.007 0 0 1-.55 4.21z" opacity="1" data-original="#a3c300" class=""></path><path fill="#d7d7d7" d="m51.52 25.04-4.88-6.34a2.977 2.977 0 0 0-3.863-.76c.334.195.628.453.863.76l4.88 6.34a3.007 3.007 0 0 1-.55 4.21l-1.94 1.5h-.01l-.01.01L8.623 44.408 7.86 45H10l39.01-14.24.01-.01h.01l1.94-1.5a3.007 3.007 0 0 0 .55-4.21z" opacity="1" data-original="#8fab00" class=""></path><path fill="#d7d7d7" d="M56.13 43.06 50.82 45H10l39.01-14.24.01-.01h.01l2.3-.84a3 3 0 0 1 3.85 1.79l2.74 7.51a3 3 0 0 1-1.79 3.85z" opacity="1" data-original="#02a8f3" class=""></path><path fill="#d7d7d7" d="m57.92 39.21-2.74-7.51a3 3 0 0 0-3.85-1.79l-.535.2c.64.344 1.132.909 1.385 1.59l2.74 7.51a3 3 0 0 1-1.79 3.85L47.82 45h3l5.31-1.94a3 3 0 0 0 1.79-3.85z" opacity="1" data-original="#0377bb" class=""></path><circle cx="7" cy="52" r="2" fill="#d7d7d7" opacity="1" data-original="#7f8d93" class=""></circle><g fill="#000" fill-rule="nonzero"><path d="m56.368 44.037.1-.038a4 4 0 0 0 2.386-5.132l-2.74-7.51a3.959 3.959 0 0 0-3.456-2.61 3.968 3.968 0 0 0-.351-4.317l-4.878-6.337a3.94 3.94 0 0 0-4.08-1.451 4 4 0 0 0-1.629-4.011l-6.552-4.59a4 4 0 0 0-4.331-.155 3.943 3.943 0 0 0-2.761-3.329l-7.624-2.411a3.992 3.992 0 0 0-4.482 1.561A3.991 3.991 0 0 0 12 0H4a4 4 0 0 0-4 4v52a4 4 0 0 0 4 4h52a4 4 0 0 0 4-4v-8a3.991 3.991 0 0 0-3.632-3.963zM54.24 32.043l2.74 7.511a2 2 0 0 1-1.193 2.566L50.643 44H15.656l33.7-12.3a.674.674 0 0 0 .092-.04l2.229-.809a2 2 0 0 1 2.566 1.193zM26 46v12h-9V46zm2 0h9v12h-9zm11 0h9v12h-9zm5.525-27.457a1.977 1.977 0 0 1 1.323.768l4.88 6.34a2 2 0 0 1-.369 2.807l-1.836 1.414-36.9 13.469 31.425-24.4c.419-.326.951-.47 1.477-.398zM32.53 9.349a1.988 1.988 0 0 1 1.495.331l6.552 4.59a2 2 0 0 1 .493 2.786l-1.37 1.957L7.654 43.894l23.585-33.721a1.982 1.982 0 0 1 1.291-.824zM17.343 5.361a2 2 0 0 1 2.507-1.308l7.634 2.412a1.993 1.993 0 0 1 1.3 2.5l-.7 2.229L5.207 43.9zM4 2h8a2 2 0 0 1 2 2v5.318L3.038 44.13A3.96 3.96 0 0 0 2 44.556V4a2 2 0 0 1 2-2zM2 56v-8a2 2 0 0 1 2-2h11v12H4a2 2 0 0 1-2-2zm56 0a2 2 0 0 1-2 2h-6V46h6a2 2 0 0 1 2 2z" fill="#6f6f6f" opacity="1" data-original="#000000" class=""></path><path d="M7 49a3 3 0 1 0 0 6 3 3 0 0 0 0-6zm0 4a1 1 0 1 1 0-2 1 1 0 0 1 0 2z" fill="#6f6f6f" opacity="1" data-original="#000000" class=""></path></g></g></g></svg>