<svg fill="none" height="512" viewBox="0 0 32 32" width="512" xmlns="http://www.w3.org/2000/svg"><g fill="rgb(0,0,0)"><path d="m10 11c-1.10457 0-2 .8954-2 2s.89543 2 2 2c1.1046 0 2-.8954 2-2s-.8954-2-2-2z"/><path d="m14 13c0-1.1046.8954-2 2-2s2 .8954 2 2-.8954 2-2 2-2-.8954-2-2z"/><path d="m22 11c-1.1046 0-2 .8954-2 2s.8954 2 2 2 2-.8954 2-2-.8954-2-2-2z"/><path clip-rule="evenodd" d="m5 1c-2.76142 0-5 2.23858-5 5v14c0 2.7614 2.23858 5 5 5h.01211l.0093 4.6784c.00081.4089.2505.7761.63046.9272.37995.1511.81363.0557 1.09505-.241l5.08888-5.3646h15.1642c2.7614 0 5-2.2386 5-5v-14c0-2.76142-2.2386-5-5-5zm-3 5c0-1.65685 1.34315-3 3-3h22c1.6569 0 3 1.34315 3 3v14c0 1.6569-1.3431 3-3 3h-15.594c-.2744 0-.5367.1127-.7255.3118l-3.66406 3.8626-.00632-3.1764c-.00109-.5515-.44849-.998-.99999-.998h-1.01013c-1.65685 0-3-1.3431-3-3z" fill-rule="evenodd"/></g></svg>