<svg id="Capa_1" enable-background="new 0 0 512 512" height="512" viewBox="0 0 512 512" width="512" xmlns="http://www.w3.org/2000/svg"><g><g id="Page-1_30_"><g id="_x30_31---Messaging"><path id="Shape_111_" d="m256 204.808c-18.851 0-34.133 15.282-34.133 34.133s15.282 34.133 34.133 34.133 34.133-15.282 34.133-34.133-15.282-34.133-34.133-34.133zm0 51.2c-9.426 0-17.067-7.641-17.067-17.067s7.641-17.067 17.067-17.067 17.067 7.641 17.067 17.067-7.641 17.067-17.067 17.067z"/><path id="Shape_110_" d="m136.533 204.808c-18.851 0-34.133 15.282-34.133 34.133s15.282 34.133 34.133 34.133 34.133-15.282 34.133-34.133-15.281-34.133-34.133-34.133zm0 51.2c-9.426 0-17.067-7.641-17.067-17.067s7.641-17.067 17.067-17.067 17.067 7.641 17.067 17.067-7.641 17.067-17.067 17.067z"/><path id="Shape_109_" d="m375.467 204.808c-18.851 0-34.133 15.282-34.133 34.133s15.282 34.133 34.133 34.133 34.133-15.282 34.133-34.133-15.282-34.133-34.133-34.133zm0 51.2c-9.426 0-17.067-7.641-17.067-17.067s7.641-17.067 17.067-17.067 17.067 7.641 17.067 17.067c-.001 9.426-7.642 17.067-17.067 17.067z"/><path id="Shape_108_" d="m256 25.608c-141.158 0-256 95.701-256 213.333s114.842 213.333 256 213.333c22.353.031 44.639-2.425 66.449-7.322 46.976 30.438 107.409 39.031 139.691 41.438h1.118c5.8.024 11.052-3.424 13.338-8.755 2.561-5.717 1.188-12.431-3.413-16.683-19.424-17.74-36.278-38.103-50.074-60.501 56.61-40.337 88.892-98.85 88.892-161.51-.001-117.631-114.843-213.333-256.001-213.333zm151.04 365.227c-3.686 2.46-4.876 7.331-2.739 11.213 14.029 24.733 31.665 47.238 52.326 66.773-32.512-3.004-86.665-12.169-127.778-40.064-1.417-.955-3.087-1.466-4.796-1.468-.67-.001-1.338.079-1.988.239-21.644 5.141-43.818 7.719-66.065 7.68-131.746 0-238.933-88.047-238.933-196.267s107.187-196.266 238.933-196.266 238.933 88.047 238.933 196.267c0 59.238-32.017 114.603-87.851 151.893z"/><path id="Path_46_" clip-rule="evenodd" d="m211.106 63.428c-72.098 11.947-131.993 52.054-160.205 107.094-2.151 4.197-.493 9.343 3.703 11.494 4.197 2.151 9.343.493 11.494-3.703 25.754-50.304 81.015-86.938 147.806-98.091 3.082-.418 5.692-2.479 6.814-5.38 1.121-2.901.575-6.182-1.424-8.564-2-2.382-5.137-3.487-8.188-2.884z" fill-rule="evenodd"/></g></g></g></svg>