<svg height="512" viewBox="0 0 60 60" width="512" xmlns="http://www.w3.org/2000/svg"><g id="b"><g><path d="m52.981 32h-.233c-.806 0-1.562-.312-2.131-.879l-6.141-6.122c-.577-.574-1.432-.743-2.185-.432-.75.312-1.234 1.036-1.234 1.847v4.586c0 .551-.451 1-1.006 1h-11.034c-3.87 0-7.019 3.14-7.019 7v6h-7c-.552 0-1 .448-1 1s.448 1 1 1h7v4h-19.998c-.552 0-1 .448-1 1s.448 1 1 1h20c0 3.86 3.148 7 7.019 7h23.963c3.87 0 7.019-3.14 7.019-7v-14c0-3.86-3.148-7-7.019-7zm5.019 21c0 2.757-2.251 5-5.019 5h-23.962c-2.767 0-5.019-2.243-5.019-5v-14c0-2.757 2.251-5 5.019-5h11.034c1.657 0 3.006-1.346 3.006-3l.006-4.585 6.141 6.122c.946.944 2.204 1.463 3.543 1.463h.233c2.768 0 5.019 2.243 5.019 5v14z"/><path d="m23.34 14.132c1.026-1.077 1.66-2.53 1.66-4.132 0-3.309-2.691-6-6-6s-6 2.691-6 6c0 1.602.634 3.055 1.66 4.132-3.221.627-5.66 3.467-5.66 6.868 0 1.654 1.346 3 3 3h14c1.654 0 3-1.346 3-3 0-3.401-2.44-6.241-5.66-6.868zm-4.34-8.132c2.206 0 4 1.794 4 4s-1.794 4-4 4-4-1.794-4-4 1.794-4 4-4zm7 16h-14c-.551 0-1-.449-1-1 0-2.757 2.243-5 5-5h6c2.757 0 5 2.243 5 5 0 .551-.449 1-1 1z"/><path d="m45.34 46.132c1.026-1.077 1.66-2.53 1.66-4.132 0-3.309-2.691-6-6-6s-6 2.691-6 6c0 1.602.634 3.055 1.66 4.132-3.221.627-5.66 3.467-5.66 6.868 0 1.654 1.346 3 3 3h14c1.654 0 3-1.346 3-3 0-3.401-2.44-6.241-5.66-6.868zm-4.34-8.132c2.206 0 4 1.794 4 4s-1.794 4-4 4-4-1.794-4-4 1.794-4 4-4zm7 16h-14c-.551 0-1-.449-1-1 0-2.757 2.243-5 5-5h6c2.757 0 5 2.243 5 5 0 .551-.448 1-1 1z"/><path d="m59 8c0-.552-.447-1-1-1h-20c0-3.86-3.14-7-7-7h-23.89c-3.86 0-7 3.14-7 7v14c0 3.86 3.14 7 7 7h.233c.79 0 1.562.32 2.121.878l6.122 6.122c.383.384.893.587 1.412.587.258 0 .519-.05.767-.153.75-.311 1.235-1.036 1.235-1.848v-4.586c0-.551.449-1 1-1h11c3.86 0 7-3.14 7-7v-6h7c.552 0 1-.448 1-1s-.448-1-1-1h-7v-4h20c.553 0 1-.448 1-1zm-23 13c0 2.757-2.243 5-5 5h-11c-1.654 0-3 1.346-3 3v4.586l-6.122-6.122c-.944-.944-2.2-1.464-3.535-1.464h-.233c-2.757 0-5-2.243-5-5v-14c0-2.757 2.243-5 5-5h23.89c2.757 0 5 2.243 5 5z"/><path d="m42 19c-.552 0-1 .448-1 1s.448 1 1 1h13c.553 0 1-.448 1-1s-.447-1-1-1z"/><path d="m5 39c-.552 0-1 .448-1 1s.448 1 1 1h13c.552 0 1-.448 1-1s-.448-1-1-1z"/></g></g></svg>