<?xml version="1.0" encoding="UTF-8"?>
<svg width="428px" height="512px" viewBox="0 0 428 512" version="1.1" xmlns="http://www.w3.org/2000/svg" xmlns:xlink="http://www.w3.org/1999/xlink">
    <title>Group</title>
    <g id="Main-Page" stroke="none" stroke-width="1" fill="none" fill-rule="evenodd">
        <g id="Home---Tests-Page---Demo-1" transform="translate(-2175, -147)" fill="#FA9716">
            <g id="Group" transform="translate(2133, 147)">
                <path d="M288,89.1733333 C282.108963,89.1733333 277.333333,84.397704 277.333333,78.5066667 L277.333333,42.6666667 C277.333333,30.912 267.754667,21.3333333 256,21.3333333 C244.245333,21.3333333 234.666667,30.912 234.666667,42.6666667 L234.666667,78.5066667 C234.666667,84.397704 229.891037,89.1733333 224,89.1733333 C218.108963,89.1733333 213.333333,84.397704 213.333333,78.5066667 L213.333333,42.6666667 C213.333333,19.136 232.469333,0 256,0 C279.530667,0 298.666667,19.136 298.666667,42.6666667 L298.666667,78.5066667 C298.666667,84.397704 293.891037,89.1733333 288,89.1733333 Z M256,512 C214.826667,512 181.333333,478.506667 181.333333,437.333333 C181.333333,431.442296 186.108963,426.666667 192,426.666667 C197.891037,426.666667 202.666667,431.442296 202.666667,437.333333 C202.666667,466.730667 226.602667,490.666667 256,490.666667 C285.397333,490.666667 309.333333,466.730667 309.333333,437.333333 C309.333333,431.442296 314.108963,426.666667 320,426.666667 C325.891037,426.666667 330.666667,431.442296 330.666667,437.333333 C330.666667,478.506667 297.173333,512 256,512 Z" id="Shape" fill-rule="nonzero"></path>
                <path d="M437.333333,448 L74.6666667,448 C61.2925987,447.953031 49.3543637,439.604479 44.7209395,427.058592 C40.0875153,414.512705 43.7335728,400.408591 53.8666667,391.68 C87.3628497,363.483802 106.688508,321.92778 106.666667,278.144 L106.666667,213.333333 C106.666667,130.986667 173.653333,64 256,64 C338.346667,64 405.333333,130.986667 405.333333,213.333333 L405.333333,278.144 C405.333333,321.941333 424.512,363.264 457.962667,391.530667 C468.215766,400.20348 471.967978,414.352613 467.359895,426.966468 C462.751811,439.580322 450.762529,447.978784 437.333333,448 L437.333333,448 Z M256,85.3333333 C185.408,85.3333333 128,142.741333 128,213.333333 L128,278.144 C128.047748,328.132566 106.023767,375.592254 67.8186667,407.829333 C64.3850905,410.710847 63.1193626,415.431613 64.6508337,419.644352 C66.1823048,423.85709 70.1841949,426.662901 74.6666667,426.666667 L437.333333,426.666667 C441.799462,426.666667 445.792959,423.884967 447.340232,419.695427 C448.887506,415.505886 447.660925,410.795973 444.266667,407.893333 C406.026927,375.647134 383.972142,328.164938 384,278.144 L384,213.333333 C384,142.741333 326.592,85.3333333 256,85.3333333 Z" id="Shape" fill-rule="nonzero"></path>
            </g>
        </g>
    </g>
</svg>