<svg xmlns="http://www.w3.org/2000/svg" version="1.1" xmlns:xlink="http://www.w3.org/1999/xlink" width="512" height="512" x="0" y="0" viewBox="0 0 24 24" style="enable-background:new 0 0 512 512" xml:space="preserve" class=""><g><path fill="#d7d7d7" d="M13.376 23.25h-2.751c-.894 0-1.62-.727-1.62-1.62v-4.433l-3.843 2.217a1.642 1.642 0 0 1-2.215-.594L1.57 16.432a1.595 1.595 0 0 1-.161-1.233c.114-.415.382-.764.755-.982L6 12 2.165 9.784a1.631 1.631 0 0 1-.758-.983 1.605 1.605 0 0 1 .163-1.236l1.374-2.382a1.642 1.642 0 0 1 2.211-.601l3.849 2.221V2.37c0-.893.727-1.62 1.62-1.62h2.751c.894 0 1.62.727 1.62 1.62v4.433l3.843-2.217a1.64 1.64 0 0 1 2.215.594l1.377 2.388c.218.373.276.812.161 1.233a1.633 1.633 0 0 1-.755.982L18 12l3.835 2.216c.376.219.644.568.758.983a1.6 1.6 0 0 1-.163 1.236l-1.374 2.382a1.64 1.64 0 0 1-2.211.601l-3.849-2.221v4.433c0 .893-.727 1.62-1.62 1.62z" opacity="1" data-original="#f44336" class=""></path><path d="M13.467 24h-2.935a1.73 1.73 0 0 1-1.729-1.728v-4.728l-4.099 2.365a1.75 1.75 0 0 1-2.363-.634L.872 16.728A1.706 1.706 0 0 1 .7 15.413c.121-.443.407-.815.806-1.047L5.6 12 1.509 9.636a1.738 1.738 0 0 1-.808-1.049 1.708 1.708 0 0 1 .174-1.318l1.465-2.54a1.75 1.75 0 0 1 2.358-.641l4.106 2.369V1.728A1.73 1.73 0 0 1 10.533 0h2.935a1.73 1.73 0 0 1 1.729 1.728v4.728l4.099-2.365a1.75 1.75 0 0 1 2.363.634l1.469 2.547c.232.398.294.866.172 1.315a1.733 1.733 0 0 1-.806 1.047L18.4 12l4.091 2.364c.401.234.687.606.808 1.049.122.449.061.917-.174 1.318l-1.465 2.541a1.749 1.749 0 0 1-2.358.641l-4.106-2.369v4.728A1.73 1.73 0 0 1 13.467 24zm-3.913-8.504a.751.751 0 0 1 .75.75v6.026a.23.23 0 0 0 .229.228h2.935a.231.231 0 0 0 .229-.228v-6.026a.748.748 0 0 1 1.125-.649l5.224 3.013a.236.236 0 0 0 .318-.09l1.465-2.541a.214.214 0 0 0 .024-.171.249.249 0 0 0-.114-.146l-5.212-3.012a.751.751 0 0 1 0-1.298l5.214-3.013a.243.243 0 0 0 .112-.145.216.216 0 0 0-.022-.168L20.36 5.478a.238.238 0 0 0-.323-.083L14.82 8.404a.752.752 0 0 1-1.125-.649V1.728a.23.23 0 0 0-.229-.228h-2.935a.231.231 0 0 0-.229.228v6.026a.748.748 0 0 1-1.125.649L3.956 5.391a.234.234 0 0 0-.318.09l-1.465 2.54a.221.221 0 0 0-.025.172c.01.035.038.101.114.146l5.212 3.012a.75.75 0 0 1 0 1.298L2.26 15.663a.243.243 0 0 0-.112.145.216.216 0 0 0 .022.168l1.469 2.547c.064.11.208.149.323.083l5.217-3.009a.741.741 0 0 1 .375-.101z" fill="#a8a8a8" opacity="1" data-original="#000000" class=""></path></g></svg>