<svg id="_x31__x2C_5" height="512" viewBox="0 0 24 24" width="512" xmlns="http://www.w3.org/2000/svg"><path d="m13.376 23.25h-2.751c-.894 0-1.62-.727-1.62-1.62v-4.433l-3.843 2.217c-.78.436-1.769.169-2.215-.594l-1.377-2.388c-.218-.373-.276-.812-.161-1.233.114-.415.382-.764.755-.982l3.836-2.217-3.835-2.216c-.376-.219-.644-.568-.758-.983-.114-.421-.056-.86.163-1.236l1.374-2.382c.448-.766 1.439-1.034 2.211-.601l3.849 2.221v-4.433c0-.893.727-1.62 1.62-1.62h2.751c.894 0 1.62.727 1.62 1.62v4.433l3.843-2.217c.777-.437 1.769-.17 2.215.594l1.377 2.388c.218.373.276.812.161 1.233-.114.415-.382.764-.755.982l-3.836 2.217 3.835 2.216c.376.219.644.568.758.983.114.421.057.86-.163 1.236l-1.374 2.382c-.448.767-1.438 1.035-2.211.601l-3.849-2.221v4.433c0 .893-.727 1.62-1.62 1.62z" fill="#f44336"/><path d="m13.467 24h-2.935c-.953 0-1.729-.775-1.729-1.728v-4.728l-4.099 2.365c-.832.466-1.887.181-2.363-.634l-1.469-2.547c-.232-.398-.294-.866-.172-1.315.121-.443.407-.815.806-1.047l4.094-2.366-4.091-2.364c-.401-.234-.687-.606-.808-1.049-.122-.448-.06-.917.174-1.318l1.465-2.54c.478-.818 1.535-1.102 2.358-.641l4.106 2.369v-4.729c0-.953.776-1.728 1.729-1.728h2.935c.953 0 1.729.775 1.729 1.728v4.728l4.099-2.365c.829-.467 1.887-.181 2.363.634l1.469 2.547c.232.398.294.866.172 1.315-.121.443-.407.815-.806 1.047l-4.094 2.366 4.091 2.364c.401.234.687.606.808 1.049.122.449.061.917-.174 1.318l-1.465 2.541c-.478.818-1.534 1.104-2.358.641l-4.106-2.369v4.728c0 .953-.776 1.728-1.729 1.728zm-3.913-8.504c.129 0 .259.034.375.101.232.134.375.381.375.649v6.026c0 .124.104.228.229.228h2.935c.124 0 .229-.104.229-.228v-6.026c0-.268.143-.516.375-.649.231-.134.518-.134.75 0l5.224 3.013c.109.062.251.023.318-.09l1.465-2.541c.041-.069.035-.131.024-.171-.01-.035-.038-.101-.114-.146l-5.212-3.012c-.231-.134-.375-.381-.375-.649s.143-.515.375-.649l5.214-3.013c.074-.043.102-.109.112-.145.011-.041.016-.103-.022-.168l-1.471-2.548c-.063-.109-.207-.148-.323-.083l-5.217 3.009c-.231.134-.518.133-.75 0-.232-.134-.375-.381-.375-.649v-6.027c0-.124-.104-.228-.229-.228h-2.935c-.124 0-.229.104-.229.228v6.026c0 .268-.143.516-.375.649-.231.134-.518.134-.75 0l-5.221-3.012c-.111-.063-.252-.024-.318.09l-1.465 2.54c-.041.069-.035.131-.025.172.01.035.038.101.114.146l5.212 3.012c.232.134.375.381.375.649s-.143.515-.375.649l-5.214 3.014c-.074.043-.102.109-.112.145-.011.041-.016.103.022.168l1.469 2.547c.064.11.208.149.323.083l5.217-3.009c.116-.068.246-.101.375-.101z"/></svg>