<svg xmlns="http://www.w3.org/2000/svg" version="1.1" xmlns:xlink="http://www.w3.org/1999/xlink" width="512" height="512" x="0" y="0" viewBox="0 0 24 24" style="enable-background:new 0 0 512 512" xml:space="preserve" class=""><g><path d="M9.02 21H2.5A2.503 2.503 0 0 1 0 18.5v-16C0 1.121 1.122 0 2.5 0h12C15.878 0 17 1.121 17 2.5v6.06a.5.5 0 0 1-1 0V2.5c0-.827-.673-1.5-1.5-1.5h-12C1.673 1 1 1.673 1 2.5v16c0 .827.673 1.5 1.5 1.5h6.52a.5.5 0 0 1 0 1z" fill="#5ac660" opacity="1" data-original="#000000" class=""></path><path d="M13.5 9h-10a.5.5 0 0 1 0-1h10a.5.5 0 0 1 0 1zM9.5 13h-6a.5.5 0 0 1 0-1h6a.5.5 0 0 1 0 1zM8.5 5h-5a.5.5 0 0 1 0-1h5a.5.5 0 0 1 0 1zM17.5 24c-3.584 0-6.5-2.916-6.5-6.5s2.916-6.5 6.5-6.5 6.5 2.916 6.5 6.5-2.916 6.5-6.5 6.5zm0-12c-3.033 0-5.5 2.468-5.5 5.5s2.467 5.5 5.5 5.5 5.5-2.468 5.5-5.5-2.467-5.5-5.5-5.5z" fill="#5ac660" opacity="1" data-original="#000000" class=""></path><path d="M17.5 21a.5.5 0 0 1-.5-.5v-6a.5.5 0 0 1 1 0v6a.5.5 0 0 1-.5.5z" fill="#5ac660" opacity="1" data-original="#000000" class=""></path><path d="M20.5 18h-6a.5.5 0 0 1 0-1h6a.5.5 0 0 1 0 1z" fill="#5ac660" opacity="1" data-original="#000000" class=""></path></g></svg>