<svg fill="none" height="24" viewBox="0 0 24 24" width="24" xmlns="http://www.w3.org/2000/svg"><g clip-rule="evenodd" fill="rgb(0,0,0)" fill-rule="evenodd"><path d="m2.25 4.5c0-1.24264 1.00736-2.25 2.25-2.25h15c1.2427 0 2.25 1.00737 2.25 2.25v7.5c0 .4142-.3358.75-.75.75s-.75-.3358-.75-.75v-7.5c0-.41422-.3358-.75-.75-.75h-15c-.41421 0-.75.33579-.75.75v15c0 .4142.33578.75.75.75h7.5c.4142 0 .75.3358.75.75s-.3358.75-.75.75h-7.5c-1.24263 0-2.25-1.0073-2.25-2.25z"/><path d="m19.5254 15.75c.4142 0 .75.3358.75.75v5c0 .4142-.3358.75-.75.75s-.75-.3358-.75-.75v-5c0-.4142.3358-.75.75-.75z"/><path d="m16.25 18.9749c0-.4143.3358-.75.75-.75h5c.4142 0 .75.3357.75.75 0 .4142-.3358.75-.75.75h-5c-.4142 0-.75-.3358-.75-.75z"/><path d="m12 7.25c-.9665 0-1.75.7835-1.75 1.75s.7835 1.75 1.75 1.75 1.75-.7835 1.75-1.75-.7835-1.75-1.75-1.75zm-3.25 1.75c0-1.79493 1.4551-3.25 3.25-3.25s3.25 1.45507 3.25 3.25c0 1.7949-1.4551 3.25-3.25 3.25s-3.25-1.4551-3.25-3.25z"/><path d="m6.75 15.5c0-2.704 2.43597-4.75 5.25-4.75 2.814 0 5.25 2.046 5.25 4.75 0 .4142-.3358.75-.75.75s-.75-.3358-.75-.75c0-1.7143-1.5934-3.25-3.75-3.25-2.15657 0-3.75 1.5357-3.75 3.25 0 .4142-.33579.75-.75.75s-.75-.3358-.75-.75z"/></g></svg>