<svg xmlns="http://www.w3.org/2000/svg" version="1.1" xmlns:xlink="http://www.w3.org/1999/xlink" width="512" height="512" x="0" y="0" viewBox="0 0 512 512.001" style="enable-background:new 0 0 512 512" xml:space="preserve"><g><path d="M506.082 10c0-5.523-4.477-10-10-10-47.68 0-94.191 9.254-138.242 27.496-28.086 11.637-54.281 26.574-78.328 44.602a9.851 9.851 0 0 0-.965-.047c-.09 0-.18 0-.27.004-61.27 1.617-118.882 26.37-162.218 69.71L62.78 195.044c-3.906 3.906-3.906 10.238 0 14.144l44.313 44.31 30.59 30.589c-27.942 30.836-46.274 69.96-51.926 111.246l-2.18 15.91a9.992 9.992 0 0 0 2.836 8.426 9.995 9.995 0 0 0 8.426 2.836l15.91-2.176c41.285-5.652 80.41-23.984 111.246-51.926l30.59 30.586 44.309 44.313c1.953 1.953 4.515 2.93 7.074 2.93s5.117-.977 7.07-2.93l53.277-53.274c43.336-43.34 68.094-100.949 69.711-162.218a9.848 9.848 0 0 0-.05-1.23c18.03-24.048 32.972-50.247 44.605-78.333 18.25-44.055 27.5-90.566 27.5-138.246zM130.199 155.906c33.485-33.48 76.266-54.855 122.516-61.62a372.4 372.4 0 0 0-12.074 11.519L114.164 232.28l-30.168-30.168zm-22.16 244.606-2.86.39.391-2.855c5.063-36.985 21.383-72.059 46.266-99.805l56.008 56.004c-27.75 24.883-62.824 41.203-99.805 46.266zm242.133-24.63-46.203 46.208-30.172-30.172 26.77-26.77c3.902-3.902 3.902-10.234 0-14.14-3.907-3.906-10.239-3.906-14.145 0l-26.766 26.765-30.41-30.406-100.941-100.941 126.48-126.477c62.055-62.058 143.797-97.27 231.149-99.804-2.532 87.355-37.743 169.097-99.801 231.152l-39.965 39.965c-3.906 3.906-3.906 10.238 0 14.144 3.906 3.903 10.234 3.903 14.14 0l39.965-39.965a364.145 364.145 0 0 0 11.52-12.074c-6.762 46.25-28.137 89.031-61.621 122.516zm0 0" fill="#6883f5" opacity="1" data-original="#000000"></path><path d="M322.832 318.75c-2.64 0-5.21 1.059-7.078 2.93a10.035 10.035 0 0 0-2.922 7.07c0 2.629 1.059 5.21 2.922 7.07a10.091 10.091 0 0 0 7.078 2.93 10.1 10.1 0 0 0 7.07-2.93 10.08 10.08 0 0 0 2.93-7.07c0-2.64-1.07-5.21-2.93-7.07a10.064 10.064 0 0 0-7.07-2.93zM302.21 203.871c-9.44-9.445-22-14.644-35.355-14.644-13.351 0-25.91 5.199-35.351 14.644-9.445 9.441-14.649 22-14.649 35.356 0 13.351 5.204 25.91 14.649 35.351 9.441 9.445 22 14.649 35.351 14.649 13.356 0 25.915-5.204 35.356-14.649 9.445-9.441 14.644-22 14.644-35.351 0-13.356-5.199-25.915-14.644-35.356zm-14.14 56.566c-5.668 5.668-13.199 8.79-21.215 8.79-8.011 0-15.546-3.122-21.21-8.79-5.668-5.664-8.79-13.199-8.79-21.21 0-8.016 3.122-15.547 8.79-21.215 5.664-5.668 13.199-8.785 21.21-8.785 8.016 0 15.547 3.117 21.215 8.785 5.664 5.668 8.785 13.199 8.785 21.215 0 8.011-3.12 15.546-8.785 21.21zM367.379 188.703c13.355 0 25.914-5.203 35.355-14.644 9.446-9.446 14.645-22 14.645-35.356s-5.2-25.914-14.645-35.355c-9.441-9.446-22-14.645-35.355-14.645-13.356 0-25.91 5.2-35.356 14.645-9.441 9.441-14.644 22-14.644 35.355s5.203 25.91 14.644 35.356c9.446 9.441 22 14.644 35.356 14.644zm-21.211-71.215c5.664-5.668 13.2-8.785 21.21-8.785 8.017 0 15.548 3.117 21.216 8.785s8.785 13.2 8.785 21.215c0 8.012-3.117 15.547-8.785 21.211-5.668 5.668-13.2 8.79-21.215 8.79-8.012 0-15.547-3.122-21.211-8.79-5.668-5.664-8.79-13.2-8.79-21.21 0-8.017 3.122-15.548 8.79-21.216zM224.758 412.676l-68.336 68.332c-3.906 3.906-3.906 10.238 0 14.144a9.98 9.98 0 0 0 7.07 2.926 9.98 9.98 0 0 0 7.07-2.926l68.336-68.336c3.907-3.902 3.907-10.234 0-14.14-3.902-3.903-10.234-3.906-14.14 0zM51.012 333.555 2.93 381.637c-3.907 3.902-3.907 10.234 0 14.14 1.953 1.953 4.511 2.93 7.07 2.93s5.117-.977 7.07-2.93L65.152 347.7c3.907-3.906 3.907-10.238 0-14.144s-10.234-3.907-14.14 0zM87.313 321.398a10.1 10.1 0 0 0 7.07-2.93 10.073 10.073 0 0 0 2.93-7.07c0-2.628-1.07-5.21-2.93-7.07a10.1 10.1 0 0 0-7.07-2.93c-2.633 0-5.211 1.07-7.083 2.93a10.08 10.08 0 0 0-2.93 7.07c0 2.633 1.071 5.211 2.93 7.07a10.121 10.121 0 0 0 7.082 2.93zM128.012 449.516 82.598 494.93a9.996 9.996 0 0 0 0 14.14 9.968 9.968 0 0 0 7.07 2.93 9.968 9.968 0 0 0 7.07-2.93l45.414-45.414c3.907-3.902 3.907-10.234 0-14.14s-10.234-3.907-14.14 0zm0 0" fill="#6883f5" opacity="1" data-original="#000000"></path></g></svg>