<svg id="Capa_1" enable-background="new 0 0 512 512" height="512" viewBox="0 0 512 512" width="512" xmlns="http://www.w3.org/2000/svg"><g><g id="Page-1_48_"><g id="_x30_49---Colour-Scheme"><path id="Shape_184_" d="m481.007 375.782.853-.324c8.51-3.104 15.437-9.463 19.256-17.677s4.216-17.609 1.104-26.116l-23.381-64.085c-4.539-12.619-16.112-21.359-29.491-22.272 6.382-11.79 5.208-26.235-2.995-36.838l-41.626-54.076c-8.094-10.707-21.78-15.574-34.816-12.382 2.474-13.147-2.96-26.528-13.901-34.227l-55.91-39.168c-10.993-7.654-25.446-8.172-36.958-1.323-.472-4.082-1.678-8.045-3.558-11.699-4.152-8.03-11.361-14.052-20.002-16.708l-65.058-20.574c-14.291-4.443-29.808.961-38.246 13.321-1.27-17.789-16.045-31.585-33.878-31.634h-68.267c-18.851 0-34.133 15.282-34.133 34.133v443.733c0 18.852 15.282 34.134 34.133 34.134h443.733c18.852 0 34.134-15.282 34.134-34.133v-68.267c-.052-17.583-13.481-32.236-30.993-33.818zm-18.159-102.348 23.381 64.094c1.556 4.254 1.357 8.951-.552 13.058s-5.373 7.287-9.628 8.838l-43.895 16.043h-298.556l287.573-104.96c.27-.094.532-.208.785-.341l19.021-6.903c4.254-1.556 8.951-1.357 13.058.552s7.287 5.373 8.838 9.628zm-240.981 119.099v102.4h-76.8v-102.4zm17.066 0h76.8v102.4h-76.8zm93.867 0h76.8v102.4h-76.8zm47.147-234.299c4.49.581 8.558 2.943 11.29 6.554l41.643 54.101c2.763 3.592 3.984 8.136 3.393 12.63-.591 4.493-2.944 8.567-6.542 11.324l-15.667 12.066-314.881 114.934 268.16-208.213c3.574-2.781 8.117-4.005 12.604-3.396zm-102.358-78.456c4.459-.8 9.053.217 12.757 2.825l55.91 39.168c3.712 2.594 6.24 6.556 7.029 11.015s-.226 9.049-2.822 12.759l-11.691 16.7-273.458 212.317 201.259-287.752c2.582-3.726 6.55-6.259 11.016-7.032zm-129.595-34.031c2.827-8.988 12.404-13.984 21.393-11.162l65.143 20.582c8.953 2.83 13.918 12.379 11.093 21.333l-5.973 19.021-195.217 279.092zm-113.861-28.68h68.267c9.426 0 17.067 7.641 17.067 17.067v45.38l-93.543 297.062c-3.11.785-6.093 2.009-8.858 3.635v-346.078c.001-9.425 7.642-17.066 17.067-17.066zm-17.066 460.8v-68.267c0-9.426 7.641-17.067 17.067-17.067h93.866v102.4h-93.867c-9.425 0-17.066-7.641-17.066-17.066zm477.866 0c0 9.426-7.641 17.067-17.067 17.067h-51.2v-102.4h51.2c9.426 0 17.067 7.641 17.067 17.067z"/><path id="Shape_183_" d="m59.733 418.133c-14.138 0-25.6 11.462-25.6 25.6s11.462 25.6 25.6 25.6 25.6-11.462 25.6-25.6-11.461-25.6-25.6-25.6zm0 34.134c-4.713 0-8.533-3.821-8.533-8.533 0-4.713 3.821-8.533 8.533-8.533s8.533 3.821 8.533 8.533c.001 4.712-3.82 8.533-8.533 8.533z"/></g></g></g></svg>