<?xml version="1.0" encoding="UTF-8"?>
<svg width="507px" height="512px" viewBox="0 0 507 512" version="1.1" xmlns="http://www.w3.org/2000/svg" xmlns:xlink="http://www.w3.org/1999/xlink">
    <title>actions-active</title>
    <g id="❓Edit-Question---Main-Tier-Questions" stroke="none" stroke-width="1" fill="none" fill-rule="evenodd">
        <g id="Frame" transform="translate(-1270, -661)">
            <g id="actions-active" transform="translate(1267, 661)">
                <path d="M281.539062,82.050781 C223.097656,83.589844 167.46875,107.496094 126.128906,148.835938 L72.851562,202.113281 L306.96875,436.230469 L360.246094,382.953125 C401.585938,341.609375 425.488281,285.984375 427.03125,227.539062 L281.539062,82.050781 Z" id="Path" fill="#E91E63"></path>
                <path d="M262.65625,391.917969 L396.203125,258.371094 C462.074219,192.496094 499.082031,103.15625 499.082031,10 C405.925781,10 316.585938,47.007812 250.714844,112.878906 L117.164062,246.425781 L262.65625,391.917969 Z" id="Path" fill="#02A9F4"></path>
                <path d="M225.175781,354.4375 C194.703125,384.914062 155.09375,404.574219 112.394531,410.417969 L96.484375,412.597656 L98.664062,396.6875 C104.507812,353.988281 124.167969,314.378906 154.644531,283.90625 L225.175781,354.4375 Z" id="Path" fill="#A3C300"></path>
                <path d="M225.175781,354.4375 C194.703125,384.914062 155.09375,404.574219 112.394531,410.417969 L96.484375,412.597656 L98.664062,396.6875 C104.507812,353.988281 124.167969,314.378906 154.644531,283.90625 L225.175781,354.4375 Z" id="Path" fill="#FFDB00"></path>
                <path d="M309.855469,239.226562 C309.855469,261.316406 291.949219,279.226562 269.855469,279.226562 C247.765625,279.226562 229.855469,261.316406 229.855469,239.226562 C229.855469,217.132812 247.765625,199.226562 269.855469,199.226562 C291.949219,199.226562 309.855469,217.132812 309.855469,239.226562 Z" id="Path" fill="#A3C300"></path>
                <path d="M410.378906,138.703125 C410.378906,160.792969 392.46875,178.703125 370.378906,178.703125 C348.289062,178.703125 330.378906,160.792969 330.378906,138.703125 C330.378906,116.609375 348.289062,98.703125 370.378906,98.703125 C392.46875,98.703125 410.378906,116.609375 410.378906,138.703125 Z" id="Path" fill="#A3C300"></path>
                <path d="M509.082031,10 C509.082031,4.476562 504.605469,0 499.082031,0 C451.402344,0 404.890625,9.253906 360.839844,27.496094 C332.753906,39.132812 306.558594,54.070312 282.511719,72.097656 C282.195312,72.066406 281.871094,72.050781 281.546875,72.050781 C281.457031,72.050781 281.367188,72.050781 281.277344,72.054688 C220.007812,73.671875 162.394531,98.425781 119.058594,141.765625 L65.78125,195.042969 C61.875,198.949219 61.875,205.28125 65.78125,209.1875 L110.09375,253.496094 L140.683594,284.085938 C112.742188,314.921875 94.410156,354.046875 88.757812,395.332031 L86.578125,411.242188 C86.152344,414.339844 87.203125,417.457031 89.414062,419.667969 C91.304688,421.558594 93.8515625,422.597656 96.484375,422.597656 C96.933594,422.597656 97.386719,422.566406 97.839844,422.503906 L113.75,420.328125 C155.035156,414.675781 194.160156,396.34375 224.996094,368.402344 L255.585938,398.988281 L299.894531,443.300781 C301.847656,445.253906 304.410156,446.230469 306.96875,446.230469 C309.527344,446.230469 312.085938,445.253906 314.039062,443.300781 L367.316406,390.027344 C410.652344,346.6875 435.410156,289.078125 437.027344,227.808594 C437.039062,227.390625 437.015625,226.980469 436.976562,226.578125 C455.007812,202.53125 469.949219,176.332031 481.582031,148.246094 C499.832031,104.191406 509.082031,57.679688 509.082031,10 Z M133.199219,155.90625 C166.683594,122.425781 209.464844,101.050781 255.714844,94.285156 C251.617188,98.027344 247.585938,101.863281 243.640625,105.804688 L117.164062,232.28125 L86.996094,202.113281 L133.199219,155.90625 Z M111.039062,400.511719 L108.179688,400.902344 L108.570312,398.046875 C113.632812,361.0625 129.953125,325.988281 154.835938,298.242188 L210.84375,354.246094 C183.09375,379.128906 148.019531,395.449219 111.039062,400.511719 Z M353.171875,375.882812 L306.96875,422.089844 L276.796875,391.917969 L303.566406,365.148438 C307.46875,361.246094 307.46875,354.914062 303.566406,351.007812 C299.660156,347.101562 293.328125,347.101562 289.421875,351.007812 L262.65625,377.773438 L232.246094,347.367188 L131.304688,246.425781 L257.785156,119.949219 C319.839844,57.890625 401.582031,22.679688 488.933594,20.144531 C486.402344,107.5 451.191406,189.242188 389.132812,251.296875 L349.167969,291.261719 C345.261719,295.167969 345.261719,301.5 349.167969,305.40625 C353.074219,309.308594 359.402344,309.308594 363.308594,305.40625 L403.273438,265.441406 C407.21875,261.496094 411.054688,257.464844 414.792969,253.367188 C408.03125,299.617188 386.65625,342.398438 353.171875,375.882812 L353.171875,375.882812 Z" id="Shape" fill="#000000" fill-rule="nonzero"></path>
                <path d="M325.832031,318.75 C323.191406,318.75 320.621094,319.808594 318.753906,321.679688 C316.890625,323.539062 315.832031,326.109375 315.832031,328.75 C315.832031,331.378906 316.890625,333.960938 318.753906,335.820312 C320.621094,337.679688 323.191406,338.75 325.832031,338.75 C328.460938,338.75 331.03125,337.679688 332.902344,335.820312 C334.761719,333.960938 335.832031,331.378906 335.832031,328.75 C335.832031,326.109375 334.761719,323.539062 332.902344,321.679688 C331.03125,319.808594 328.453125,318.75 325.832031,318.75 Z" id="Path" fill="#000000"></path>
                <path d="M305.210938,203.871094 C295.769531,194.425781 283.210938,189.226562 269.855469,189.226562 C256.503906,189.226562 243.945312,194.425781 234.503906,203.871094 C225.058594,213.3125 219.855469,225.871094 219.855469,239.226562 C219.855469,252.578125 225.058594,265.136719 234.503906,274.578125 C243.945312,284.023438 256.503906,289.226562 269.855469,289.226562 C283.210938,289.226562 295.769531,284.023438 305.210938,274.578125 C314.65625,265.136719 319.855469,252.578125 319.855469,239.226562 C319.855469,225.871094 314.65625,213.3125 305.210938,203.871094 L305.210938,203.871094 Z M291.070312,260.4375 C285.402344,266.105469 277.871094,269.226562 269.855469,269.226562 C261.84375,269.226562 254.308594,266.105469 248.644531,260.4375 C242.976562,254.773438 239.855469,247.238281 239.855469,239.226562 C239.855469,231.210938 242.976562,223.679688 248.644531,218.011719 C254.308594,212.34375 261.84375,209.226562 269.855469,209.226562 C277.871094,209.226562 285.402344,212.34375 291.070312,218.011719 C296.734375,223.679688 299.855469,231.210938 299.855469,239.226562 C299.855469,247.238281 296.734375,254.773438 291.070312,260.4375 Z" id="Shape" fill="#000000" fill-rule="nonzero"></path>
                <path d="M370.378906,188.703125 C383.734375,188.703125 396.292969,183.5 405.734375,174.058594 C415.179688,164.613281 420.378906,152.058594 420.378906,138.703125 C420.378906,125.347656 415.179688,112.789062 405.734375,103.347656 C396.292969,93.902344 383.734375,88.703125 370.378906,88.703125 C357.023438,88.703125 344.46875,93.902344 335.023438,103.347656 C325.582031,112.789062 320.378906,125.347656 320.378906,138.703125 C320.378906,152.058594 325.582031,164.613281 335.023438,174.058594 C344.46875,183.5 357.023438,188.703125 370.378906,188.703125 L370.378906,188.703125 Z M349.167969,117.488281 C354.832031,111.820312 362.367188,108.703125 370.378906,108.703125 C378.394531,108.703125 385.925781,111.820312 391.59375,117.488281 C397.261719,123.15625 400.378906,130.6875 400.378906,138.703125 C400.378906,146.714844 397.261719,154.25 391.59375,159.914062 C385.925781,165.582031 378.394531,168.703125 370.378906,168.703125 C362.367188,168.703125 354.832031,165.582031 349.167969,159.914062 C343.5,154.25 340.378906,146.714844 340.378906,138.703125 C340.378906,130.6875 343.5,123.15625 349.167969,117.488281 L349.167969,117.488281 Z" id="Shape" fill="#000000" fill-rule="nonzero"></path>
                <path d="M227.757812,412.675781 L159.421875,481.007812 C155.515625,484.914062 155.515625,491.246094 159.421875,495.152344 C161.375,497.101562 163.933594,498.078125 166.492188,498.078125 C169.050781,498.078125 171.609375,497.101562 173.5625,495.152344 L241.898438,426.816406 C245.804688,422.914062 245.804688,416.582031 241.898438,412.675781 C237.996094,408.773438 231.664062,408.769531 227.757812,412.675781 Z" id="Path" fill="#000000"></path>
                <path d="M54.011719,333.554688 L5.929688,381.636719 C2.023438,385.539062 2.023438,391.871094 5.929688,395.777344 C7.882812,397.730469 10.441406,398.707031 13.0000005,398.707031 C15.558594,398.707031 18.117188,397.730469 20.070312,395.777344 L68.152344,347.699219 C72.058594,343.792969 72.058594,337.460938 68.152344,333.554688 C64.246094,329.648438 57.917969,329.648438 54.011719,333.554688 L54.011719,333.554688 Z" id="Path" fill="#000000"></path>
                <path d="M90.3125,321.398438 C92.941406,321.398438 95.511719,320.328125 97.382812,318.46875 C99.242188,316.609375 100.3125,314.03125 100.3125,311.398438 C100.3125,308.769531 99.242188,306.1875 97.382812,304.328125 C95.511719,302.46875 92.941406,301.398438 90.3125,301.398438 C87.679688,301.398438 85.101562,302.46875 83.230469,304.328125 C81.371094,306.1875 80.300781,308.769531 80.300781,311.398438 C80.300781,314.03125 81.371094,316.609375 83.230469,318.46875 C85.101562,320.328125 87.679688,321.398438 90.3125,321.398438 Z" id="Path" fill="#000000"></path>
                <path d="M131.011719,449.515625 L85.597656,494.929688 C81.691406,498.835938 81.691406,505.164062 85.597656,509.070312 C87.550781,511.023438 90.109375,512 92.6679685,512 C95.226562,512 97.785156,511.023438 99.738281,509.070312 L145.152344,463.65625 C149.058594,459.753906 149.058594,453.421875 145.152344,449.515625 C141.246094,445.609375 134.917969,445.609375 131.011719,449.515625 Z" id="Path" fill="#000000"></path>
            </g>
        </g>
    </g>
</svg>