<svg xmlns="http://www.w3.org/2000/svg" version="1.1" xmlns:xlink="http://www.w3.org/1999/xlink" width="512" height="512" x="0" y="0" viewBox="0 0 682.667 682.667" style="enable-background:new 0 0 512 512" xml:space="preserve" class=""><g><defs><clipPath id="a" clipPathUnits="userSpaceOnUse"><path d="M0 512h512V0H0Z" fill="#000000" opacity="1" data-original="#000000"></path></clipPath></defs><path d="m0 0-21.214-21.213L0-42.426l21.213 21.213 10.606 31.82z" style="fill-opacity:1;fill-rule:nonzero;stroke:none" transform="matrix(1.33333 0 0 -1.33333 182.427 358.82)" fill="#5ac660" data-original="#dae0e7" class="" opacity="1"></path><g clip-path="url(#a)" transform="matrix(1.33333 0 0 -1.33333 0 682.667)"><path d="M0 0c-32.218 32.219-84.454 32.219-116.673 0l-83.395-55.11-55.113-83.396 21.214-21.214L-95.459-21.213c20.502 20.503 53.743 20.503 74.246 0 20.502-20.503 20.502-53.744 0-74.246l7.071-7.071C18.076-70.312 24.407-24.407 0 0" style="fill-opacity:1;fill-rule:nonzero;stroke:none" transform="translate(392 381.393)" fill="#5ac660" data-original="#ff4e51" class="" opacity="1"></path><path d="M0 0c32.219-32.219 32.219-84.455 0-116.673l7.071-7.071C51.006-79.81 57.337-14.91 21.214 21.213c-43.935 43.934-115.165 43.933-159.1 0L-414.279-255.18c-38.076-38.076-38.075-99.809 0-137.885 30.265-30.266 85.668-23.934 123.744 14.142l-7.07 7.07c-26.362-26.36-69.1-26.359-95.46 0-26.361 26.361-26.361 69.1 0 95.46L-116.672 0C-84.454 32.218-32.218 32.218 0 0" style="fill-opacity:1;fill-rule:nonzero;stroke:none" transform="translate(450.336 439.73)" fill="#5ac660" data-original="#ff7149" class="" opacity="1"></path><path d="M0 0c38.076-38.076 99.81-38.076 137.887 0l58.336 58.336 94.003 65.718 65.717 94.003c32.219 32.217 32.219 84.454 0 116.672 20.503-20.502 11.005-63.242-21.213-95.459L116.674 21.213C78.598-16.863 26.361-26.36 0 0" style="fill-opacity:1;fill-rule:nonzero;stroke:none" transform="translate(36.057 46.664)" fill="#5ac660" data-original="#ff2b59" class="" opacity="1"></path><path d="m0 0-21.214-21.213L0-42.426l21.213 21.213 10.606 31.819Z" style="fill-opacity:1;fill-rule:nonzero;stroke:none" transform="translate(253.493 126.213)" fill="#5ac660" data-original="#c0c8d2" class="" opacity="1"></path><path d="M0 0c43.934 43.934 43.934 115.165 0 159.099 32.218-32.218 22.721-93.953-21.214-137.886l-196.843-196.844 21.213-21.213z" style="fill-opacity:1;fill-rule:nonzero;stroke:none" transform="translate(471.55 301.844)" fill="#5ac660" data-original="#ff4e51" class="" opacity="1"></path><path d="M0 0c32.219 32.219 84.455 32.219 116.673 0 32.219-32.218 32.219-84.454 0-116.672" style="stroke-width:15;stroke-linecap:round;stroke-linejoin:round;stroke-miterlimit:10;stroke-dasharray:none;stroke-opacity:1" transform="translate(275.327 381.393)" fill="none" stroke="#000000" stroke-width="15" stroke-linecap="round" stroke-linejoin="round" stroke-miterlimit="10" stroke-dasharray="none" stroke-opacity="" data-original="#000000" class=""></path><path d="M0 0c20.502 20.503 53.743 20.503 74.246 0 20.502-20.502 20.502-53.743 0-74.246l-218.058-218.057c-26.36-26.36-69.098-26.36-95.459 0-26.36 26.361-26.36 69.1 0 95.46L37.123 79.55c32.218 32.218 84.454 32.218 116.672 0 32.219-32.219 32.219-84.454 0-116.673l-276.393-276.393c-38.076-38.076-99.81-38.076-137.886 0-38.076 38.077-38.076 99.81 0 137.886L15.909 100.763c43.935 43.934 115.165 43.934 159.1 0 43.933-43.934 43.933-115.165 0-159.099L-43.048-276.393l-21.214 21.213" style="stroke-width:15;stroke-linecap:round;stroke-linejoin:round;stroke-miterlimit:10;stroke-dasharray:none;stroke-opacity:1" transform="translate(296.541 360.18)" fill="none" stroke="#000000" stroke-width="15" stroke-linecap="round" stroke-linejoin="round" stroke-miterlimit="10" stroke-dasharray="none" stroke-opacity="" data-original="#000000" class=""></path><path d="m0 0 21.214-21.213 138.507 138.507" style="stroke-width:15;stroke-linecap:round;stroke-linejoin:round;stroke-miterlimit:10;stroke-dasharray:none;stroke-opacity:1" transform="translate(115.606 221.673)" fill="none" stroke="#000000" stroke-width="15" stroke-linecap="round" stroke-linejoin="round" stroke-miterlimit="10" stroke-dasharray="none" stroke-opacity="" data-original="#000000" class=""></path><path d="m0 0-21.213 21.213" style="stroke-width:15;stroke-linecap:round;stroke-linejoin:round;stroke-miterlimit:10;stroke-dasharray:none;stroke-opacity:1" transform="translate(274.706 105)" fill="none" stroke="#000000" stroke-width="15" stroke-linecap="round" stroke-linejoin="round" stroke-miterlimit="10" stroke-dasharray="none" stroke-opacity="" data-original="#000000" class=""></path><path d="m0 0-21.213 21.213" style="stroke-width:15;stroke-linecap:round;stroke-linejoin:round;stroke-miterlimit:10;stroke-dasharray:none;stroke-opacity:1" transform="translate(158.033 221.673)" fill="none" stroke="#000000" stroke-width="15" stroke-linecap="round" stroke-linejoin="round" stroke-miterlimit="10" stroke-dasharray="none" stroke-opacity="" data-original="#000000" class=""></path></g></g></svg>