<?xml version="1.0" encoding="UTF-8"?>
<svg width="325px" height="239px" viewBox="0 0 325 239" version="1.1" xmlns="http://www.w3.org/2000/svg" xmlns:xlink="http://www.w3.org/1999/xlink">
    <title>Group</title>
    <g id="Page-1" stroke="none" stroke-width="1" fill="none" fill-rule="evenodd">
        <g id="Group">
            <g id="b" fill="#CCCCCC">
                <path d="M62.6688,230.4 L60.6805333,230.4 C32.4010667,230.4 9.48051906,207.479467 9.48051906,179.2 L9.48051906,59.7333333 C9.472,31.4538667 32.3925333,8.53333333 60.672,8.53333333 L264.533333,8.53333333 C292.8128,8.53333333 315.733333,31.4538667 315.733333,59.7333333 L315.733333,179.2 C315.733333,207.479467 292.8128,230.4 264.533333,230.4 L62.6688,230.4 Z" id="Path"></path>
            </g>
            <g id="c" fill="#000000" fill-rule="nonzero">
                <path d="M324.266667,59.7333333 C324.266667,26.7946667 297.472,0 264.533333,0 L60.672,0 C27.7333333,0 0.938666667,26.7946667 0.938666667,59.7333333 L0.938666667,179.2 C0.938666667,212.138667 27.7333333,238.933333 60.672,238.933333 L62.6602667,238.933333 L170.666667,238.933333 L264.533333,238.933333 C297.472,238.933333 324.266667,212.138667 324.266667,179.2 L324.266667,59.7333333 Z M307.2,179.2 C307.2,202.7264 288.059733,221.866667 264.533333,221.866667 L170.666667,221.866667 L62.6602667,221.866667 L60.672,221.866667 C37.1456,221.866667 18.0053333,202.7264 18.0053333,179.2 L18.0053333,59.7333333 C18.0053333,36.2069333 37.1456,17.0666667 60.672,17.0666667 L264.533333,17.0666667 C288.059733,17.0666667 307.2,36.2069333 307.2,59.7333333 L307.2,179.2 Z" id="Shape"></path>
            </g>
        </g>
    </g>
</svg>