<?xml version="1.0" encoding="UTF-8"?>
<svg width="325px" height="304px" viewBox="0 0 325 304" version="1.1" xmlns="http://www.w3.org/2000/svg" xmlns:xlink="http://www.w3.org/1999/xlink">
    <title>Group</title>
    <g id="Page-1" stroke="none" stroke-width="1" fill="none" fill-rule="evenodd">
        <g id="Group">
            <g id="b">
                <path d="M153.6,247.466667 L153.6,286.600533 C153.6,294.203733 144.4096,298.0096 139.0336,292.6336 L86.8010667,240.401067 C80.4010667,234.001067 71.7141333,230.4 62.6688,230.4 L60.6805333,230.4 C32.4010667,230.4 9.48053095,207.479467 9.48053095,179.2 L9.48053095,59.7333333 C9.472,31.4538667 32.3925333,8.53333333 60.672,8.53333333 L264.533333,8.53333333 C292.8128,8.53333333 315.733333,31.4538667 315.733333,59.7333333 L315.733333,179.2 C315.733333,207.479467 292.8128,230.4 264.533333,230.4 L170.666667,230.4 C161.237333,230.4 153.6,238.037333 153.6,247.466667 Z" id="Path" fill="#A4C400"></path>
                <path d="M264.533333,8.53333333 L238.933333,8.53333333 C267.2128,8.53333333 290.133333,31.4538667 290.133333,59.7333333 L290.133333,179.2 C290.133333,207.479467 267.2128,230.4 238.933333,230.4 L264.533333,230.4 C292.8128,230.4 315.733333,207.479467 315.733333,179.2 L315.733333,59.7333333 C315.733333,31.4538667 292.8128,8.53333333 264.533333,8.53333333 Z" id="Path" fill="#90AC00"></path>
                <circle id="Oval" fill="#FFE0B2" cx="162.133333" cy="85.3333333" r="42.6666667"></circle>
                <path d="M162.133333,42.6666667 C157.6448,42.6666667 153.3952,43.5541333 149.333333,44.8341333 C166.596267,50.2954667 179.2,66.2528 179.2,85.3333333 C179.2,104.413867 166.596267,120.362667 149.333333,125.832533 C153.3952,127.121067 157.6448,128 162.133333,128 C185.693867,128 204.8,108.893867 204.8,85.3333333 C204.8,61.7728 185.693867,42.6666667 162.133333,42.6666667 Z" id="Path" fill="#DFC49C"></path>
                <path d="M136.533333,128 L187.733333,128 C215.9872,128 238.933333,150.946133 238.933333,179.2 C238.933333,188.6208 231.287467,196.266667 221.866667,196.266667 L102.4,196.266667 C92.9792,196.266667 85.3333333,188.6208 85.3333333,179.2 C85.3333333,150.946133 108.279467,128 136.533333,128 Z" id="Path" fill="#E91E63"></path>
                <path d="M187.733333,128 L162.133333,128 C190.4128,128 213.333333,150.920533 213.333333,179.2 C213.333333,188.629333 205.696,196.266667 196.266667,196.266667 L221.866667,196.266667 C231.296,196.266667 238.933333,188.629333 238.933333,179.2 C238.933333,150.920533 216.0128,128 187.733333,128 Z" id="Path" fill="#AD1457"></path>
            </g>
            <g id="c" fill="#000000" fill-rule="nonzero">
                <path d="M199.168,120.593067 C207.9232,111.402667 213.333333,99.0037333 213.333333,85.3333333 C213.333333,57.0965333 190.370133,34.1333333 162.133333,34.1333333 C133.896533,34.1333333 110.933333,57.0965333 110.933333,85.3333333 C110.933333,99.0037333 116.343467,111.402667 125.098667,120.593067 C97.6128,125.943467 76.8,150.178133 76.8,179.2 C76.8,193.314133 88.2858667,204.8 102.4,204.8 L221.866667,204.8 C235.9808,204.8 247.466667,193.314133 247.466667,179.2 C247.466667,150.178133 226.645333,125.943467 199.168,120.593067 Z M162.133333,51.2 C180.957867,51.2 196.266667,66.5088 196.266667,85.3333333 C196.266667,104.157867 180.957867,119.466667 162.133333,119.466667 C143.3088,119.466667 128,104.157867 128,85.3333333 C128,66.5088 143.3088,51.2 162.133333,51.2 Z M221.866667,187.733333 L102.4,187.733333 C97.6981333,187.733333 93.8666667,183.901867 93.8666667,179.2 C93.8666667,155.6736 113.006933,136.533333 136.533333,136.533333 L187.733333,136.533333 C211.259733,136.533333 230.4,155.6736 230.4,179.2 C230.4,183.901867 226.568533,187.733333 221.866667,187.733333 Z" id="Shape"></path>
                <path d="M324.266667,59.7333333 C324.266667,26.7946667 297.472,0 264.533333,0 L60.672,0 C27.7333333,0 0.938666667,26.7946667 0.938666667,59.7333333 L0.938666667,179.2 C0.938666667,212.138667 27.7333333,238.933333 60.672,238.933333 L62.6602667,238.933333 C69.4016,238.933333 75.9893333,241.664 80.7594667,246.4256 L133.000533,298.666667 C136.2688,301.943467 140.6208,303.675733 145.0496,303.675733 C147.2512,303.675733 149.4784,303.249067 151.594667,302.370133 C157.994667,299.716267 162.133333,293.5296 162.133333,286.600533 L162.133333,247.466667 C162.133333,242.7648 165.9648,238.933333 170.666667,238.933333 L264.533333,238.933333 C297.472,238.933333 324.266667,212.138667 324.266667,179.2 L324.266667,59.7333333 Z M307.2,179.2 C307.2,202.7264 288.059733,221.866667 264.533333,221.866667 L170.666667,221.866667 C156.552533,221.866667 145.066667,233.352533 145.066667,247.466667 L145.066667,286.600533 L92.8256,234.359467 C84.7701333,226.304 74.0522667,221.866667 62.6602667,221.866667 L60.672,221.866667 C37.1456,221.866667 18.0053333,202.7264 18.0053333,179.2 L18.0053333,59.7333333 C18.0053333,36.2069333 37.1456,17.0666667 60.672,17.0666667 L264.533333,17.0666667 C288.059733,17.0666667 307.2,36.2069333 307.2,59.7333333 L307.2,179.2 Z" id="Shape"></path>
            </g>
        </g>
    </g>
</svg>